<?xml version="1.0" standalone="no"?><!DOCTYPE svg PUBLIC "-//W3C//DTD SVG 1.1//EN" "http://www.w3.org/Graphics/SVG/1.1/DTD/svg11.dtd"><svg t="1663053776409" class="icon" viewBox="0 0 1024 1024" version="1.1" xmlns="http://www.w3.org/2000/svg" p-id="12122" xmlns:xlink="http://www.w3.org/1999/xlink" width="64" height="64"><path d="M819.2 768c-15.36 0-25.6 10.24-25.6 25.6s10.24 25.6 25.6 25.6 25.6-10.24 25.6-25.6-12.8-25.6-25.6-25.6z m-563.2 0c-15.36 0-25.6 10.24-25.6 25.6s10.24 25.6 25.6 25.6 25.6-10.24 25.6-25.6-12.8-25.6-25.6-25.6z m0-512c15.36 0 25.6-10.24 25.6-25.6s-10.24-25.6-25.6-25.6-25.6 10.24-25.6 25.6 10.24 25.6 25.6 25.6z m281.6 102.4c-84.48 0-153.6 69.12-153.6 153.6s69.12 153.6 153.6 153.6 153.6-69.12 153.6-153.6-69.12-153.6-153.6-153.6z m0 256c-56.32 0-102.4-46.08-102.4-102.4s46.08-102.4 102.4-102.4 102.4 46.08 102.4 102.4-46.08 102.4-102.4 102.4zM844.8 102.4H230.4C174.08 102.4 128 148.48 128 204.8v614.4c0 56.32 46.08 102.4 102.4 102.4h614.4c56.32 0 102.4-46.08 102.4-102.4V204.8c0-56.32-46.08-102.4-102.4-102.4z m51.2 716.8c0 28.16-23.04 51.2-51.2 51.2H230.4c-28.16 0-51.2-23.04-51.2-51.2V204.8c0-28.16 23.04-51.2 51.2-51.2h614.4c28.16 0 51.2 23.04 51.2 51.2v614.4zM819.2 204.8c-15.36 0-25.6 10.24-25.6 25.6s10.24 25.6 25.6 25.6 25.6-10.24 25.6-25.6-12.8-25.6-25.6-25.6zM537.6 204.8C366.08 204.8 230.4 343.04 230.4 512s138.24 307.2 307.2 307.2 307.2-138.24 307.2-307.2S706.56 204.8 537.6 204.8z m0 563.2c-140.8 0-256-115.2-256-256s115.2-256 256-256 256 115.2 256 256-115.2 256-256 256z" p-id="12123" fill="#7558f4"></path></svg>