<?xml version="1.0" standalone="no"?><!DOCTYPE svg PUBLIC "-//W3C//DTD SVG 1.1//EN" "http://www.w3.org/Graphics/SVG/1.1/DTD/svg11.dtd"><svg t="1662716518307" class="icon" viewBox="0 0 1024 1024" version="1.1" xmlns="http://www.w3.org/2000/svg" p-id="1346" data-spm-anchor-id="a313x.7781069.0.i6" xmlns:xlink="http://www.w3.org/1999/xlink" width="64" height="64"><path d="M207.14679 843.582977a26.587234 26.587234 0 0 1-26.587234-26.660276v-608.438616a26.587234 26.587234 0 0 1 53.247509 0v608.438616a26.587234 26.587234 0 0 1-26.660275 26.587234z m608.438616 0a26.587234 26.587234 0 0 1-26.660276-26.660276V208.849294a26.587234 26.587234 0 0 1 53.320551 0v608.073407a26.587234 26.587234 0 0 1-26.660275 26.587234z" p-id="1347" fill="#7558f4"></path><path d="M815.585406 235.14436h-608.438616a26.587234 26.587234 0 1 1 0-53.320551h608.438616a26.587234 26.587234 0 1 1 0 53.320551z m0 608.438617h-608.438616a26.587234 26.587234 0 1 1 0-53.320551h608.438616a26.587234 26.587234 0 1 1 0 53.320551zM680.092773 708.017302H341.76292a26.587234 26.587234 0 1 1 0-53.174468h338.402895a26.587234 26.587234 0 1 1 0 53.174468z m0-337.45335H342.93159a26.587234 26.587234 0 1 1 0-53.24751h337.234225a26.587234 26.587234 0 1 1 0 53.24751z" p-id="1348" fill="#7558f4"></path><path d="M684.037033 713.057189a27.24461 27.24461 0 0 1-27.244611-27.24461V340.1055a27.24461 27.24461 0 1 1 54.489221 0v345.780121a27.24461 27.24461 0 0 1-27.24461 27.171568z m-346.437498 0a27.24461 27.24461 0 0 1-27.24461-27.24461V340.1055a27.24461 27.24461 0 1 1 54.48922 0v345.268828a27.24461 27.24461 0 0 1-27.24461 27.755903z m1.16867-484.486595a27.24461 27.24461 0 0 1-27.244611-27.244611V28.655048a27.24461 27.24461 0 1 1 54.489221 0v172.670935a27.24461 27.24461 0 0 1-27.24461 27.244611z m172.013558 0a27.24461 27.24461 0 0 1-27.24461-27.244611V28.655048a27.24461 27.24461 0 1 1 54.48922 0v172.670935a27.24461 27.24461 0 0 1-27.24461 27.244611z m173.25527 0a27.24461 27.24461 0 0 1-27.244611-27.244611V28.655048a27.24461 27.24461 0 1 1 54.489221 0v172.670935a27.24461 27.24461 0 0 1-27.24461 27.244611zM338.768205 1023.996348a27.24461 27.24461 0 0 1-27.244611-27.24461v-172.670935a27.24461 27.24461 0 0 1 54.489221 0v172.670935a27.24461 27.24461 0 0 1-27.24461 27.24461z m172.013558 0a27.24461 27.24461 0 0 1-27.24461-27.24461v-172.670935a27.24461 27.24461 0 0 1 54.48922 0v172.670935a27.24461 27.24461 0 0 1-27.24461 27.24461z m173.25527 0a27.24461 27.24461 0 0 1-27.244611-27.24461v-172.670935a27.24461 27.24461 0 0 1 54.489221 0v172.670935a27.24461 27.24461 0 0 1-27.24461 27.24461z m311.377409-656.646238h-172.670935a27.24461 27.24461 0 0 1 0-54.48922h172.670935a27.24461 27.24461 0 0 1 0 54.48922z m0 172.013559h-172.670935a27.24461 27.24461 0 0 1 0-54.489221h172.670935a27.24461 27.24461 0 0 1 0 54.489221z m0 173.255269h-172.670935a27.24461 27.24461 0 0 1 0-54.48922h172.670935a27.24461 27.24461 0 0 1 0 54.48922zM199.988688 367.35011H27.317753a27.24461 27.24461 0 1 1 0-54.48922h172.670935a27.24461 27.24461 0 0 1 0 54.48922z m0 172.013559H27.317753a27.24461 27.24461 0 0 1 0-54.489221h172.670935a27.24461 27.24461 0 0 1 0 54.489221z m0 173.255269H27.317753a27.24461 27.24461 0 1 1 0-54.48922h172.670935a27.24461 27.24461 0 0 1 0 54.48922z" p-id="1349" fill="#7558f4"></path></svg>