<?xml version="1.0" standalone="no"?><!DOCTYPE svg PUBLIC "-//W3C//DTD SVG 1.1//EN" "http://www.w3.org/Graphics/SVG/1.1/DTD/svg11.dtd"><svg t="1655796267359" class="icon" viewBox="0 0 1024 1024" version="1.1" xmlns="http://www.w3.org/2000/svg" p-id="2613" xmlns:xlink="http://www.w3.org/1999/xlink" width="300" height="300"><defs><style type="text/css">@font-face { font-family: feedback-iconfont; src: url("//at.alicdn.com/t/font_1031158_u69w8yhxdu.woff2?t=1630033759944") format("woff2"), url("//at.alicdn.com/t/font_1031158_u69w8yhxdu.woff?t=1630033759944") format("woff"), url("//at.alicdn.com/t/font_1031158_u69w8yhxdu.ttf?t=1630033759944") format("truetype"); }
</style></defs><path d="M247.6 347.4c-77.9 0-141.2-63.3-141.2-141.2S169.8 65 247.6 65s141.2 63.3 141.2 141.2-63.3 141.2-141.2 141.2z m0-218.4c-42.6 0-77.2 34.6-77.2 77.2s34.6 77.2 77.2 77.2 77.2-34.6 77.2-77.2-34.6-77.2-77.2-77.2zM247.6 955.9c-14.3 0-26.8-9.4-30.7-23.1l-149.5-517c-2.8-9.7-0.9-20.1 5.2-28.1s15.5-12.8 25.6-12.8h298.9c10.1 0 19.5 4.7 25.6 12.8s8 18.5 5.2 28.1L278.4 932.7c-4 13.7-16.5 23.2-30.8 23.2z m-106.9-517l106.9 369.7 106.9-369.7H140.7zM576.3 961.2c-17.7 0-32-14.3-32-32V767.8c0-17.7 14.3-32 32-32s32 14.3 32 32v161.4c0 17.7-14.3 32-32 32zM576.3 544.2c-17.7 0-32-14.3-32-32V96c0-17.7 14.3-32 32-32s32 14.3 32 32v416.2c0 17.7-14.3 32-32 32z" fill="" p-id="2614"></path><path d="M925 672H429.5c-17.7 0-32-14.3-32-32s14.3-32 32-32H893V417.5H675.5c-17.7 0-32-14.3-32-32s14.3-32 32-32H925c17.7 0 32 14.3 32 32V640c0 17.6-14.3 32-32 32z" fill="" p-id="2615"></path><path d="M429.1 672c-8.2 0-16.4-3.1-22.6-9.4-12.5-12.5-12.5-32.8 0-45.3l64.8-64.8c12.5-12.5 32.8-12.5 45.3 0s12.5 32.8 0 45.3l-64.8 64.8c-6.3 6.2-14.5 9.4-22.7 9.4z" fill="" p-id="2616"></path><path d="M494.2 737.8c-8.2 0-16.4-3.1-22.6-9.4l-64.8-64.8c-12.5-12.5-12.5-32.8 0-45.3s32.8-12.5 45.3 0l64.8 64.8c12.5 12.5 12.5 32.8 0 45.3-6.3 6.2-14.5 9.4-22.7 9.4z" fill="" p-id="2617"></path></svg>