<?xml version="1.0" standalone="no"?><!DOCTYPE svg PUBLIC "-//W3C//DTD SVG 1.1//EN" "http://www.w3.org/Graphics/SVG/1.1/DTD/svg11.dtd"><svg t="1655798131853" class="icon" viewBox="0 0 1024 1024" version="1.1" xmlns="http://www.w3.org/2000/svg" p-id="50551" xmlns:xlink="http://www.w3.org/1999/xlink" width="300" height="300"><defs><style type="text/css">@font-face { font-family: feedback-iconfont; src: url("//at.alicdn.com/t/font_1031158_u69w8yhxdu.woff2?t=1630033759944") format("woff2"), url("//at.alicdn.com/t/font_1031158_u69w8yhxdu.woff?t=1630033759944") format("woff"), url("//at.alicdn.com/t/font_1031158_u69w8yhxdu.ttf?t=1630033759944") format("truetype"); }
</style></defs><path d="M224.170667 597.333333L692.992 597.333333c4.437333 7.338667 9.856 14.122667 16.213333 20.181334l30.72 29.098666c-1.749333 6.826667-4.053333 13.568-6.826666 20.394667a32 32 0 0 0-18.304-5.717333h-490.666667a32 32 0 0 0-32 32v38.698666c0 27.989333 12.245333 54.570667 33.450667 72.789334 53.674667 46.165333 134.570667 69.888 243.754666 69.888 12.458667 0 24.533333-0.298667 36.266667-0.896 3.456 19.029333 12.544 37.12 26.922667 51.584l9.728 9.728c-23.125333 2.389333-47.402667 3.584-72.917334 3.584-123.306667 0-218.794667-28.032-285.44-85.333334a160 160 0 0 1-55.722666-121.344v-38.698666A96 96 0 0 1 224.170667 597.333333z m501.632-74.88l21.461333-50.645333c10.069333-23.722667 34.218667-36.693333 57.856-31.744l5.077333 1.322667 26.88 8.618666c26.666667 8.533333 47.104 31.36 53.674667 60.032 15.658667 68.181333-3.114667 151.168-56.405333 249.002667-53.205333 97.664-111.488 156.373333-174.933334 176.170667a75.093333 75.093333 0 0 1-70.954666-14.592l-5.248-4.864-20.48-20.48a58.026667 58.026667 0 0 1-9.429334-67.84l2.986667-4.992 30.805333-45.226667c12.117333-17.792 32.853333-26.197333 52.778667-21.973333l5.418667 1.493333 56.832 18.944a216.746667 216.746667 0 0 0 56.746666-64.810667 204.672 204.672 0 0 0 25.472-67.84l1.621334-11.52-47.36-44.885333a57.770667 57.770667 0 0 1-14.848-58.581333l2.048-5.589334 21.461333-50.645333-21.461333 50.645333zM469.333333 85.546667a213.333333 213.333333 0 1 1 0 426.666666 213.333333 213.333333 0 0 1 0-426.666666z m0 64a149.333333 149.333333 0 1 0 0 298.666666 149.333333 149.333333 0 0 0 0-298.666666z" p-id="50552"></path></svg>