<?xml version="1.0" standalone="no"?><!DOCTYPE svg PUBLIC "-//W3C//DTD SVG 1.1//EN" "http://www.w3.org/Graphics/SVG/1.1/DTD/svg11.dtd"><svg t="1663138942658" class="icon" viewBox="0 0 1102 1024" version="1.1" xmlns="http://www.w3.org/2000/svg" p-id="1755" xmlns:xlink="http://www.w3.org/1999/xlink" width="68.875" height="64"><path d="M1018.88 0H80.738462C37.257846 0 0 37.809231 0 81.92v245.76C0 371.790769 37.257846 409.6 80.738462 409.6h934.990769c43.559385 0 80.817231-37.809231 80.817231-81.92V81.92c3.150769-44.110769-34.185846-81.92-77.666462-81.92z m37.257846 327.68c0 22.055385-15.517538 37.809231-37.257846 37.809231H80.738462a38.045538 38.045538 0 0 1-37.257847-37.809231V81.92c0-22.055385 18.668308-37.809231 37.257847-37.809231h938.141538c21.740308 0 37.257846 15.753846 37.257846 37.809231v245.76z" p-id="1756" fill="#7558f4"></path><path d="M344.772923 182.744615H173.922462a21.425231 21.425231 0 0 0-21.740308 22.055385c0 12.603077 9.373538 22.055385 21.740308 22.055385h170.92923c12.366769 0 21.740308-9.452308 21.740308-22.055385 0-12.603077-12.445538-22.055385-21.819077-22.055385z m674.107077 330.83077H80.738462C37.257846 513.575385 0 551.384615 0 595.495385v245.76c0 44.110769 37.257846 81.92 80.738462 81.92h599.591384c12.366769 0 21.740308-9.452308 21.740308-22.055385 0-12.603077-9.373538-22.055385-21.740308-22.055385H80.738462a38.045538 38.045538 0 0 1-37.257847-37.80923V595.495385c0-22.055385 18.668308-37.809231 37.257847-37.809231h938.141538c21.740308 0 37.257846 15.753846 37.257846 37.809231V724.676923c0 12.603077 9.373538 22.055385 21.819077 22.055385 12.366769 0 21.740308-9.452308 21.740308-22.055385V595.495385c0-44.110769-37.336615-81.92-80.817231-81.92z" p-id="1757" fill="#7558f4"></path><path d="M173.922462 696.32a21.425231 21.425231 0 0 0-21.740308 22.055385c0 12.603077 9.373538 22.055385 21.740308 22.055384h170.92923c12.366769 0 21.740308-9.452308 21.740308-22.055384 0-12.603077-9.373538-22.055385-21.819077-22.055385H173.922462z m925.774769 138.633846v-9.452308l-3.150769-3.150769-3.15077-3.150769-3.072-3.150769-205.036307-100.824616h-15.517539s-3.150769 0-3.150769 3.15077l-3.072 3.150769-3.150769 3.150769v6.301539l-43.401846 242.60923v12.603077c0 3.150769 0 3.150769 3.150769 6.301539 3.072 3.150769 3.072 3.150769 6.144 3.150769h18.668307s3.150769 0 3.15077-3.150769l52.775384-40.96 37.257846 63.015384c0 3.150769 3.150769 3.150769 6.22277 3.15077l3.150769 3.150769c3.072 3.150769 6.144 3.150769 9.216 3.150769 3.150769 0 6.301538 0 9.373538-3.150769l99.40677-56.713846s0-3.150769 3.150769-3.15077l3.072-3.150769s0-3.150769 3.150769-3.150769v-15.753846l-40.487385-56.713846 55.926154-22.055385h3.15077s3.150769 0 3.150769-3.150769L1102.769231 850.707692v-6.301538l-3.150769-9.452308z m-111.852308 12.603077s0 3.150769 0 0l-3.150769 3.150769-3.072 3.15077-3.150769 3.150769v15.753846s0 3.150769 3.150769 3.150769l40.408615 59.864616-59.076923 34.658461-40.329846-63.015385s-3.150769 0-3.150769-3.150769l-3.150769-3.150769s-3.072 0-3.072-3.150769h-15.517539l-37.257846 25.206154 27.963077-157.538462 133.592615 66.166154-34.185846 15.753846z m-31.113846-132.332308l24.891077-18.904615c9.294769-6.301538 9.294769-22.055385 3.150769-31.507692-6.301538-9.452308-21.819077-9.452308-31.113846-3.15077l-24.812308 18.904616c-9.373538 6.301538-9.373538 22.055385-3.150769 31.507692 3.150769 6.301538 9.294769 9.452308 15.517538 9.452308 9.373538 0 12.445538-3.150769 15.517539-6.301539z m-77.587692-15.753846c12.366769 0 21.740308-9.452308 21.740307-22.055384v-34.658462c0-12.603077-9.373538-22.055385-21.740307-22.055385a21.425231 21.425231 0 0 0-21.740308 22.055385v34.658462c0 9.452308 9.294769 22.055385 21.740308 22.055384z m-55.926154 22.055385c6.222769 0 12.366769-3.150769 15.517538-6.301539a21.267692 21.267692 0 0 0 0-31.507692l-27.963077-28.356923c-9.294769-9.452308-21.740308-9.452308-31.035077 0a21.267692 21.267692 0 0 0 0 31.507692l27.963077 28.356923c3.072 3.150769 9.294769 6.301538 15.517539 6.301539z m6.222769 40.96c0-12.603077-9.373538-22.055385-21.740308-22.055385h-49.703384a21.425231 21.425231 0 0 0-21.819077 22.055385c0 12.603077 9.373538 22.055385 21.819077 22.055384h49.624615c12.445538 0 21.819077-9.452308 21.819077-22.055384z" p-id="1758" fill="#7558f4"></path></svg>