<?xml version="1.0" encoding="UTF-8"?>
<svg width="16px" height="16px" viewBox="0 0 16 16" version="1.1" xmlns="http://www.w3.org/2000/svg" xmlns:xlink="http://www.w3.org/1999/xlink">
    <title>归零- icon</title>
    <g id="人员计数" stroke="none" stroke-width="1" fill="none" fill-rule="evenodd">
        <g transform="translate(-1350.000000, -284.000000)" fill="#7558F4" fill-rule="nonzero" id="归零--icon" stroke="#7558F4" stroke-width="0.2">
            <g transform="translate(1351.000000, 285.000000)">
                <path d="M3.05522682,6.13565311 L3.05522682,10.957714 L3.09467456,11.0190114 L6.75838264,13.238622 L6.75838264,8.50796943 L3.05522682,6.13565311 Z M3.21696252,5.61516304 L7.00493097,8.04232438 L10.7835306,5.61570073 L7.03303748,3.34339594 L6.96696252,3.34339594 L3.21696252,5.61516304 Z M10.9447732,6.13619081 L7.25147929,8.50743173 L7.25147929,13.2327073 L10.9053254,11.0190114 L10.9447732,10.957714 L10.9447732,6.13619081 L10.9447732,6.13619081 Z M2.56213018,10.902869 L2.56213018,5.39685832 L6.75345168,2.85785613 L6.75345168,-4.77570299e-16 L7.24654832,-4.77570299e-16 L7.24654832,2.85785613 L11.4378698,5.39685832 L11.4378698,10.902869 L14,12.8611591 L13.7169625,13.3015324 L11.2569034,11.4212083 L7,14 L2.74309665,11.4212083 L0.282544379,13.3015324 L2.189789e-16,12.8606214 L2.56213018,10.902869 Z" id="形状"></path>
            </g>
        </g>
    </g>
</svg>