<?xml version="1.0" encoding="UTF-8"?>
<svg width="13px" height="14px" viewBox="0 0 13 14" version="1.1" xmlns="http://www.w3.org/2000/svg" xmlns:xlink="http://www.w3.org/1999/xlink">
    <title>配置led-icon</title>
    <g id="人员计数" stroke="none" stroke-width="1" fill="none" fill-rule="evenodd">
        <g transform="translate(-1264.000000, -255.000000)" fill="#7558F4" fill-rule="nonzero" id="配置led-icon">
            <g transform="translate(1264.000000, 255.000000)">
                <path d="M6.5,14 C6.40724684,14 6.3160485,13.9769073 6.235125,13.9329751 L0.276791667,10.6954811 C0.105841759,10.602596 0,10.4274562 0,10.237507 L0,3.76251902 C0,3.57256983 0.105841759,3.39743002 0.276791667,3.30454487 L6.235125,0.0670508888 C6.39966285,-0.0223502963 6.60033715,-0.0223502963 6.764875,0.0670508888 L12.7232083,3.30454487 C12.8941582,3.39743002 13,3.57256983 13,3.76251902 L13,10.237507 C13,10.4274562 12.8941582,10.602596 12.7232083,10.6954811 L6.764875,13.9329751 C6.68396062,13.9769293 6.59275626,14 6.5,14 Z M6.5,13.1696492 L12.0845613,10.0932178 L12.0845613,3.95311619 L6.5,0.89949539 L0.933707058,3.95311619 L0.933707058,9.99535228 L6.5,13.1696492 Z" id="形状"></path>
                <path d="M6.5,9.8000078 C4.90713889,9.8000078 3.61111111,8.54386014 3.61111111,7.000013 C3.61111111,5.45616586 4.90713889,4.2000182 6.5,4.2000182 C8.09286111,4.2000182 9.38888889,5.45616586 9.38888889,7.000013 C9.38888889,8.54386014 8.09286112,9.8000078 6.5,9.8000078 Z M6.5,5.25001625 C5.50441667,5.25001625 4.69444444,6.03506479 4.69444444,7.000013 C4.69444444,7.96496121 5.50441667,8.75001625 6.5,8.75001625 C7.49558333,8.75001625 8.30555556,7.96496121 8.30555556,7.000013 C8.30555556,6.03506479 7.49558333,5.25001625 6.5,5.25001625 Z" id="形状"></path>
            </g>
        </g>
    </g>
</svg>