<?xml version="1.0" standalone="no"?><!DOCTYPE svg PUBLIC "-//W3C//DTD SVG 1.1//EN" "http://www.w3.org/Graphics/SVG/1.1/DTD/svg11.dtd"><svg t="1655797220177" class="icon" viewBox="0 0 1024 1024" version="1.1" xmlns="http://www.w3.org/2000/svg" p-id="15761" xmlns:xlink="http://www.w3.org/1999/xlink" width="300" height="300"><defs><style type="text/css">@font-face { font-family: feedback-iconfont; src: url("//at.alicdn.com/t/font_1031158_u69w8yhxdu.woff2?t=1630033759944") format("woff2"), url("//at.alicdn.com/t/font_1031158_u69w8yhxdu.woff?t=1630033759944") format("woff"), url("//at.alicdn.com/t/font_1031158_u69w8yhxdu.ttf?t=1630033759944") format("truetype"); }
</style></defs><path d="M862.4 267.2h-192c-26.4 0-48 26.4-48 59.2v415.2c0 26.4 14.4 48.8 33.6 56v3.2c0 69.6 44.8 126.4 100.8 126.4s100.8-56.8 100.8-126.4h52.8c26.4 0 48-26.4 48-59.2V444.8l-96-177.6z m-104.8 603.2c-31.2 0-56-31.2-56-70.4s24.8-70.4 56-70.4 56 31.2 56 70.4-25.6 70.4-56 70.4zM668 464V323.2h168l78.4 140H668zM556 98.4h-448c-24.8 0-44.8 24.8-44.8 56V744c0 31.2 20 56 44.8 56h67.2c0 69.6 44.8 126.4 100.8 126.4s100.8-56.8 100.8-126.4h179.2c24.8 0 44.8-24.8 44.8-56V154.4c0-30.4-20-56-44.8-56z m-280 772c-31.2 0-56-31.2-56-70.4s24.8-70.4 56-70.4 56 31.2 56 70.4-24.8 70.4-56 70.4z m169.6-449.6L361.6 543.2c-8 11.2-22.4 4.8-22.4-10.4v-60H228c-7.2 0-12-7.2-12-15.2V364c0-8.8 5.6-15.2 12-15.2h111.2V288c0-15.2 14.4-21.6 22.4-10.4L445.6 400c4 6.4 4 15.2 0 20.8z" p-id="15762"></path></svg>