<?xml version="1.0" standalone="no"?><!DOCTYPE svg PUBLIC "-//W3C//DTD SVG 1.1//EN" "http://www.w3.org/Graphics/SVG/1.1/DTD/svg11.dtd"><svg t="1663064902626" class="icon" viewBox="0 0 1024 1024" version="1.1" xmlns="http://www.w3.org/2000/svg" p-id="2033" xmlns:xlink="http://www.w3.org/1999/xlink" width="64" height="64"><path d="M959.634286 82.285714h-28.672l-75.410286 0.073143-200.192 0.146286c-4.388571 0-6.582857-1.536-13.604571-10.971429C641.609143 71.241143 631.296 56.832 627.565714 52.004571 600.941714 17.846857 567.515429 0 512.731429 0c-54.784 0-90.550857 18.285714-117.467429 51.785143-5.851429 7.094857-19.236571 26.697143-20.333714 28.16-2.486857 3.218286-1.901714 2.852571 0.731428 2.779428l-49.737143 0.073143-109.494857 0.146286c-44.032 0-58.660571 0.146286-99.474285 0.219429H64.365714c-15.36 0-27.794286 12.434286-27.794285 27.648s12.434286 27.501714 27.794285 27.501714h14.116572l38.619428-0.073143 99.474286-0.219429 109.421714-0.146285h49.664c18.505143 0 31.451429-8.923429 43.373715-24.356572 2.56-3.291429 15.652571-22.308571 19.748571-27.428571C455.314286 65.389714 475.428571 55.076571 512.731429 55.076571c36.717714 0 54.272 9.362286 70.729142 30.573715 2.925714 3.657143 12.653714 17.334857 13.458286 18.505143 16.384 22.089143 32.402286 33.499429 57.782857 33.499428l200.850286-0.146286 75.483429-0.073142h28.598857c15.36 0 27.794286-12.434286 27.794285-27.574858a27.721143 27.721143 0 0 0-27.794285-27.574857zM535.990857 880.274286V296.155429a27.648 27.648 0 0 0-27.794286-27.574858c-15.36 0-27.794286 12.361143-27.794285 27.574858v584.118857c0 15.213714 12.434286 27.574857 27.794285 27.574857s27.794286-12.288 27.794286-27.574857z" fill="#7558f4" p-id="2034"></path><path d="M955.830857 328.923429c0.146286-18.505143 0-18.505143 0-22.601143 0.146286-15.213714-9.508571-27.648-24.868571-27.721143-15.36 0-29.403429 12.214857-29.549715 27.428571 0 4.096 0.146286 4.096 0 22.601143-0.073143 24.722286 0.219429 24.722286 0 60.196572-0.292571 62.756571 0.292571 126.902857 0 188.562285 0 18.505143 0.146286 18.505143 0 37.229715-0.731429 156.525714-1.170286 263.241143-1.170285 297.179428 0 25.819429-6.217143 46.811429-21.430857 53.394286-8.996571 3.803429-21.357714 3.218286-28.964572 2.925714h-2.925714c-4.388571 0-4.388571-0.292571-24.502857 0-19.602286 0.219429-41.545143-0.365714-65.389715 0-68.169143 0.731429-137.801143-0.877714-204.946285 0-21.723429 0.146286-21.723429-0.292571-43.446857 0-168.96 1.828571-285.037714 0-323.876572 0-31.524571 0-46.884571-9.728-54.345143-26.331428a60.489143 60.489143 0 0 1-4.754285-27.794286V307.931429c0-15.213714-9.508571-27.574857-24.868572-27.648-15.36 0-30.573714 12.214857-30.646857 27.428571v599.332571c-0.146286 1.024 0.219429 1.024 0 3.364572-1.097143 16.237714 1.097143 35.108571 9.508571 53.76 16.384 36.644571 51.785143 58.953143 105.106286 58.953143 39.131429 0 155.209143 1.901714 324.534857 0 21.723429-0.219429 21.723429 0.292571 43.446857 0 67.145143-0.731429 136.777143 0.877714 204.946286 0 23.844571-0.219429 45.860571 0.292571 65.389714 0 16.457143-0.146286 19.456 0 22.381715 0h-0.731429c17.773714 0.950857 33.938286-0.219429 52.077714-8.045715 35.254857-15.213714 59.026286-55.296 59.026286-103.277714 0-33.865143-0.731429-140.434286 0-296.96 0.146286-18.651429 0-18.651429 0-37.229714 0.292571-61.659429-0.292571-125.732571 0-188.489143 0.219429-35.474286-0.146286-35.474286 0-60.196571z" fill="#7558f4" p-id="2035"></path><path d="M341.357714 820.150857v-409.6a27.648 27.648 0 0 0-27.794285-27.574857c-15.36 0-27.794286 12.288-27.794286 27.501714v409.673143c0 15.286857 12.434286 27.574857 27.794286 27.574857s27.794286-12.288 27.794285-27.574857zM702.902857 847.286857c0 15.213714 12.434286 27.574857 27.794286 27.574857s27.794286-12.361143 27.794286-27.574857V608.987429a27.721143 27.721143 0 0 0-27.794286-27.574858c-15.36 0-27.794286 12.434286-27.794286 27.574858v238.299428zM730.697143 496.786286c15.36 0 27.794286-12.361143 27.794286-27.574857V364.690286a27.648 27.648 0 0 0-27.794286-27.574857c-15.36 0-27.794286 12.361143-27.794286 27.574857v104.594285c0 15.140571 12.434286 27.501714 27.794286 27.501715z" fill="#7558f4" p-id="2036"></path></svg>