<?xml version="1.0" standalone="no"?><!DOCTYPE svg PUBLIC "-//W3C//DTD SVG 1.1//EN" "http://www.w3.org/Graphics/SVG/1.1/DTD/svg11.dtd"><svg t="1655800115788" class="icon" viewBox="0 0 1024 1024" version="1.1" xmlns="http://www.w3.org/2000/svg" p-id="85515" xmlns:xlink="http://www.w3.org/1999/xlink" width="300" height="300"><defs><style type="text/css">@font-face { font-family: feedback-iconfont; src: url("//at.alicdn.com/t/font_1031158_u69w8yhxdu.woff2?t=1630033759944") format("woff2"), url("//at.alicdn.com/t/font_1031158_u69w8yhxdu.woff?t=1630033759944") format("woff"), url("//at.alicdn.com/t/font_1031158_u69w8yhxdu.ttf?t=1630033759944") format("truetype"); }
</style></defs><path d="M631.808 272.384q0 53.248-18.944 100.352t-50.688 82.432-73.216 55.808-87.552 20.48-88.064-19.456-73.728-54.784-50.688-83.968-18.944-107.008q0-46.08 18.432-87.552t49.664-73.216 72.192-50.688 87.04-18.944 88.064 19.968 74.752 52.736 52.224 75.264 19.456 88.576zM360.448 603.136l-1.024 363.52 36.864-48.128 38.912 48.128 0-363.52-74.752 0zM604.16 84.992q21.504 25.6 38.912 55.296 14.336 25.6 26.624 58.368t12.288 68.608q-2.048 62.464-13.824 104.448t-26.112 67.584q-17.408 29.696-37.888 47.104 29.696-3.072 59.392-9.216 25.6-5.12 55.296-13.312t56.32-22.528q23.552-12.288 44.544-32.256t35.84-47.616 20.992-61.952 0-76.288q-6.144-43.008-35.84-76.8t-70.656-53.76-85.504-23.552-80.384 15.872zM605.184 543.744l-1.024 347.136 35.84-47.104 38.912 47.104 0-347.136-73.728 0z" p-id="85516"></path></svg>