<?xml version="1.0" standalone="no"?><!DOCTYPE svg PUBLIC "-//W3C//DTD SVG 1.1//EN" "http://www.w3.org/Graphics/SVG/1.1/DTD/svg11.dtd"><svg t="1655692909155" class="icon" viewBox="0 0 1024 1024" version="1.1" xmlns="http://www.w3.org/2000/svg" p-id="7247" xmlns:xlink="http://www.w3.org/1999/xlink" width="300" height="300"><defs><style type="text/css">@font-face { font-family: feedback-iconfont; src: url("//at.alicdn.com/t/font_1031158_u69w8yhxdu.woff2?t=1630033759944") format("woff2"), url("//at.alicdn.com/t/font_1031158_u69w8yhxdu.woff?t=1630033759944") format("woff"), url("//at.alicdn.com/t/font_1031158_u69w8yhxdu.ttf?t=1630033759944") format("truetype"); }
</style></defs><path d="M0 239.36v579.2L414.08 1024H448V460.8z m384 704L98.56 800 384 658.56z m0-352.64l-320 158.72V338.56l320 158.08z m576-348.16v-3.2L512 460.8V1024h33.92L960 818.56zM576 941.44v-282.88l285.44 141.44z m320-192L576 590.72V496.64l320-158.08z m0-570.24v-38.4L480 0 64 140.8v37.76L480 384 896 179.2zM480 320L172.8 166.4 480 64l306.56 104.32z" fill="#666666" p-id="7248"></path></svg>