<?xml version="1.0" standalone="no"?><!DOCTYPE svg PUBLIC "-//W3C//DTD SVG 1.1//EN" "http://www.w3.org/Graphics/SVG/1.1/DTD/svg11.dtd"><svg t="1655798576051" class="icon" viewBox="0 0 1024 1024" version="1.1" xmlns="http://www.w3.org/2000/svg" p-id="58943" xmlns:xlink="http://www.w3.org/1999/xlink" width="300" height="300"><defs><style type="text/css">@font-face { font-family: feedback-iconfont; src: url("//at.alicdn.com/t/font_1031158_u69w8yhxdu.woff2?t=1630033759944") format("woff2"), url("//at.alicdn.com/t/font_1031158_u69w8yhxdu.woff?t=1630033759944") format("woff"), url("//at.alicdn.com/t/font_1031158_u69w8yhxdu.ttf?t=1630033759944") format("truetype"); }
</style></defs><path d="M213.747656 299.672878h21.303738c34.085982 0 63.911217-8.521496 89.475704-29.825235C358.61308 244.283157 375.656071 210.197174 384.177567 171.850444c4.260748-42.607478-8.521496-80.954208-29.825235-110.779442C303.223359-7.100962 209.486908-19.883206 145.575691 31.245768c-68.171964 51.128973-80.954208 144.865424-29.825234 208.776641 25.564487 34.085982 59.650469 51.128973 97.997199 59.650469z m-17.042992-200.255146c12.782243-8.521496 25.564487-12.782243 38.34673-12.782243 21.303739 0 38.34673 8.521496 51.128974 25.564487 8.521496 12.782243 12.782243 29.825234 12.782243 46.868225-4.260748 17.042991-12.782243 34.085982-25.564487 42.607478s-29.825234 12.782243-46.868225 12.782243-34.085982-12.782243-42.607478-25.564486c-21.303739-25.564487-17.042991-68.171964 12.782243-89.475704zM912.510291 640.5327l-225.819632-89.475703c-12.782243-4.260748-25.564487-8.521496-42.607478-8.521496l-178.951407-8.521495-72.432712-178.951407c38.34673-21.303739 72.432712-38.34673 97.997199-46.868226 17.042991-8.521496 34.085982-21.303739 46.868226-34.085982l110.779442-136.343929c12.782243-17.042991 12.782243-46.868226-4.260748-59.650469-21.303739-12.782243-46.868226-12.782243-63.911217 8.521496L469.392522 222.979418c-4.260748 4.260748-8.521496 8.521496-17.042991 12.782243-29.825234 8.521496-85.214956 38.34673-136.343929 63.911217-55.389721 34.085982-102.257947 72.432712-119.300938 93.736451-12.782243 8.521496-21.303739 21.303739-29.825234 34.085982l-76.69346 157.647668c-8.521496 21.303739 0 46.868226 17.042991 55.389721 4.260748 4.260748 12.782243 4.260748 17.042991 4.260748 17.042991 0 29.825234-8.521496 38.34673-25.564487l76.69346-157.647668c4.260748-4.260748 4.260748-8.521496 8.521496-12.782243 12.782243-12.782243 34.085982-29.825234 63.911216-51.128973l136.343929 323.816831c4.260748 4.260748 4.260748 12.782243 4.260748 21.303739L469.392522 981.392522c0 21.303739 21.303739 42.607478 42.607478 42.607478 25.564487 0 42.607478-21.303739 42.607478-42.607478l-8.521496-234.341128c0-17.042991-4.260748-34.085982-8.521495-55.389721l-29.825235-72.432712 136.343929 4.260748c4.260748 0 8.521496 0 12.782243 4.260748l225.819633 89.475703c4.260748 0 8.521496 4.260748 17.042991 4.260748 17.042991 0 34.085982-8.521496 38.34673-25.564487 4.260748-21.303739-4.260748-46.868226-25.564487-55.389721z" p-id="58944" fill="#2c2c2c"></path></svg>