<svg t="1655190327837" class="icon" viewBox="0 0 1024 1024" version="1.1" xmlns="http://www.w3.org/2000/svg" p-id="73458" width="300" height="300"><path d="M522.666667 554.666667c-17.706667 0-32-14.293333-32-32v-64c0-17.706667 14.293333-32 32-32s32 14.293333 32 32v64c0 17.706667-14.293333 32-32 32zM245.333333 597.333333c-17.706667 0-32-14.293333-32-32v-42.666666c0-17.706667 14.293333-32 32-32s32 14.293333 32 32v42.666666c0 17.706667-14.293333 32-32 32zM778.666667 597.333333c-17.706667 0-32-14.293333-32-32v-42.666666c0-17.706667 14.293333-32 32-32s32 14.293333 32 32v42.666666c0 17.706667-14.293333 32-32 32z" p-id="73459"></path><path d="M778.666667 554.666667h-533.333334c-17.706667 0-32-14.293333-32-32s14.293333-32 32-32h533.333334c17.706667 0 32 14.293333 32 32s-14.293333 32-32 32zM640 42.666667H384c-46.933333 0-85.333333 38.4-85.333333 85.333333v149.333333c0 46.933333 38.4 85.333333 85.333333 85.333334h256c46.933333 0 85.333333-38.4 85.333333-85.333334V128c0-46.933333-38.4-85.333333-85.333333-85.333333z m-10.666667 128h-64c-17.706667 0-32-14.293333-32-32S547.626667 106.666667 565.333333 106.666667h64c17.706667 0 32 14.293333 32 32S647.04 170.666667 629.333333 170.666667zM384 661.333333H128c-46.933333 0-85.333333 38.4-85.333333 85.333334v149.333333c0 46.933333 38.4 85.333333 85.333333 85.333333h256c46.933333 0 85.333333-38.4 85.333333-85.333333v-149.333333c0-46.933333-38.4-85.333333-85.333333-85.333334z m-10.666667 128h-64c-17.706667 0-32-14.293333-32-32s14.293333-32 32-32h64c17.706667 0 32 14.293333 32 32s-14.293333 32-32 32zM896 661.333333H640c-46.933333 0-85.333333 38.4-85.333333 85.333334v149.333333c0 46.933333 38.4 85.333333 85.333333 85.333333h256c46.933333 0 85.333333-38.4 85.333333-85.333333v-149.333333c0-46.933333-38.4-85.333333-85.333333-85.333334z m-10.666667 128h-64c-17.706667 0-32-14.293333-32-32s14.293333-32 32-32h64c17.706667 0 32 14.293333 32 32s-14.293333 32-32 32z" p-id="73460"></path></svg>
