<?xml version="1.0" standalone="no"?><!DOCTYPE svg PUBLIC "-//W3C//DTD SVG 1.1//EN" "http://www.w3.org/Graphics/SVG/1.1/DTD/svg11.dtd"><svg t="1662718022939" class="icon" viewBox="0 0 1194 1024" version="1.1" xmlns="http://www.w3.org/2000/svg" p-id="3479" xmlns:xlink="http://www.w3.org/1999/xlink" width="74.625" height="64"><path d="M458.92352 977.493333V1024H367.104853v-46.506667h91.818667z m183.552 0V1024H550.742187v-46.506667h91.733333z m183.552 0V1024H734.294187v-46.506667H826.02752z m183.637333 0V1024h-91.818666v-46.506667h91.818666z m183.466667 0V1024h-91.733333v-46.506667h91.818666z m0-977.493333v43.861333H1194.66752v93.098667h-44.885333L272.81152 1024H45.824853A46.250667 46.250667 0 0 1 0.000853 977.493333V46.506667C0.000853 20.906667 20.480853 0 45.910187 0h1147.306666z m-45.824 46.506667H45.910187v930.986666h207.957333L1147.30752 73.642667V46.506667zM1194.66752 788.650667v93.098666h-45.909333v-93.013333H1194.66752z m0-186.197334v93.098667h-45.909333v-93.013333H1194.66752z m-811.093333-443.733333l157.952 399.786667H454.912853l-34.389333-90.794667H262.998187l-32.682667 90.794667H145.920853l153.6-399.786667h84.138667zM1194.66752 416.341333v93.013334h-45.909333V416.426667H1194.66752zM340.65152 251.989333l-53.248 148.394667h107.52l-54.272-148.394667zM1194.66752 230.144v93.013333h-45.909333v-93.013333H1194.66752z" fill="#7558F4" p-id="3480"></path></svg>