<svg class="icon" viewBox="0 0 1024 1024" version="1.1" xmlns="http://www.w3.org/2000/svg" width="300" height="300"><path d="M498.2714 612.683925h54.84666v-54.846659h-54.84666v54.846659z m-164.517398 0h54.84666v-54.846659h-54.84666v54.846659z m0 82.258699h54.84666v-54.869239h-54.84666v54.869239zM59.543286 311.038589H4.696626v54.846659h54.84666v-54.846659z m329.057376 0h-54.84666v54.846659h54.84666v-54.846659z m-54.84666 548.421433h54.84666v-54.846659h-54.84666v54.846659z m137.105359-548.421433h-54.84666v54.846659h54.84666v-54.846659z m-54.84666 548.421433h54.84666v-54.846659h-54.84666v54.846659z m-82.258699-411.316075h54.84666v-54.846659h-54.84666v54.846659z m0 329.057376h54.84666v-54.846659h-54.84666v54.846659z m82.258699-164.517398h54.84666v-54.846659h-54.84666v54.846659z m-82.258699-82.258699h54.84666v-54.846659h-54.84666v54.846659zM59.543286 557.837266H4.696626v54.846659h54.84666v-54.846659z m0 82.258699H4.696626v54.869239h54.84666v-54.869239z m0-246.798677H4.696626v54.846659h54.84666v-54.846659z m0 82.281279H4.696626v54.846659h54.84666v-54.846659z m0 246.776097H4.696626v54.846659h54.84666v-54.846659z m191.952017 82.281279v54.846659h54.84666v-54.846659h-54.84666z m-191.952017 0H4.696626v54.846659h54.84666v-54.846659z m109.693318 0v54.846659h54.84666v-54.846659H169.236604z m-82.258699 0v54.846659H141.801985v-54.846659H86.977905zM4.696626 1024H1019.258214v-54.846659H4.696626v54.846659z m658.114752-411.316075h54.869239v-54.846659h-54.869239v54.846659z m301.645336-301.645336h-54.869239v54.846659h54.869239v-54.846659z m-54.869239 548.421433h54.869239v-54.846659h-54.869239v54.846659z m-109.670739-548.421433h-54.824079v54.846659h54.824079v-54.846659z m27.43462 548.421433h54.82408v-54.846659h-54.82408v54.846659z m54.8015-548.421433H827.328776v54.846659h54.82408v-54.846659z m82.303858 466.162734h54.82408v-54.846659h-54.82408v54.846659zM4.696626 146.521191v54.846659H1019.258214V146.521191H4.696626z m959.760088 301.622756h54.82408v-54.846659h-54.82408v54.846659z m0 246.798677h54.82408v-54.869239h-54.82408v54.869239z m0-164.517398h54.82408v-54.846659h-54.82408v54.846659z m0 82.258699h54.82408v-54.846659h-54.82408v54.846659zM553.11806 311.038589h-54.84666v54.846659h54.84666v-54.846659z m109.693318 137.105358h54.869239v-54.846659h-54.869239v54.846659z m82.281279 411.316075h54.824079v-54.846659h-54.824079v54.846659z m-109.715898-548.421433h-54.82408v54.846659h54.82408v-54.846659z m-54.82408 548.421433h54.82408v-54.846659h-54.82408v54.846659z m-82.281279 0h54.84666v-54.846659h-54.84666v54.846659z m219.386637-548.421433h-54.869239v54.846659h54.869239v-54.846659z m-54.846659 548.421433h54.869239v-54.846659h-54.869239v54.846659z m0-82.258699h54.869239v-54.846659h-54.869239v54.846659z m0-246.776097h54.869239v-54.846659h-54.869239v54.846659z m0 164.517398h54.869239v-54.869239h-54.869239v54.869239z" fill="#ffffff"></path></svg>
