<?xml version="1.0" standalone="no"?><!DOCTYPE svg PUBLIC "-//W3C//DTD SVG 1.1//EN" "http://www.w3.org/Graphics/SVG/1.1/DTD/svg11.dtd"><svg t="1655799084470" class="icon" viewBox="0 0 1024 1024" version="1.1" xmlns="http://www.w3.org/2000/svg" p-id="61283" xmlns:xlink="http://www.w3.org/1999/xlink" width="300" height="300"><defs><style type="text/css">@font-face { font-family: feedback-iconfont; src: url("//at.alicdn.com/t/font_1031158_u69w8yhxdu.woff2?t=1630033759944") format("woff2"), url("//at.alicdn.com/t/font_1031158_u69w8yhxdu.woff?t=1630033759944") format("woff"), url("//at.alicdn.com/t/font_1031158_u69w8yhxdu.ttf?t=1630033759944") format("truetype"); }
</style></defs><path d="M682.666667 85.333333l213.333333 213.333334v597.731555c0 23.324444-19.000889 42.268444-42.382222 42.268445H170.382222a42.666667 42.666667 0 0 1-42.382222-42.325334V127.658667c0-23.381333 19.000889-42.325333 42.382222-42.325334H682.666667z m-170.666667 512a227.555556 227.555556 0 0 0-227.555556 227.555556h455.111112a227.555556 227.555556 0 0 0-227.555556-227.555556zM512 227.555556a170.666667 170.666667 0 1 0 0 341.333333 170.666667 170.666667 0 1 0 0-341.333333z" p-id="61284" fill="#2c2c2c"></path></svg>