<?xml version="1.0" standalone="no"?><!DOCTYPE svg PUBLIC "-//W3C//DTD SVG 1.1//EN" "http://www.w3.org/Graphics/SVG/1.1/DTD/svg11.dtd"><svg t="1662717670529" class="icon" viewBox="0 0 1024 1024" version="1.1" xmlns="http://www.w3.org/2000/svg" p-id="2828" xmlns:xlink="http://www.w3.org/1999/xlink" width="64" height="64"><path d="M995.555556 0h-303.786667a28.444444 28.444444 0 0 0 0 56.888889H967.111111v330.524444a28.444444 28.444444 0 1 0 56.888889 0V28.444444a28.444444 28.444444 0 0 0-28.444444-28.444444zM332.8 0H28.444444a28.444444 28.444444 0 0 0-28.444444 28.444444v358.968889a28.444444 28.444444 0 0 0 56.888889 0V56.888889h275.911111a28.444444 28.444444 0 0 0 0-56.888889zM995.555556 608.142222a28.444444 28.444444 0 0 0-28.444445 28.444445V967.111111h-275.342222a28.444444 28.444444 0 0 0 0 56.888889h303.786667a28.444444 28.444444 0 0 0 28.444444-28.444444v-358.968889a28.444444 28.444444 0 0 0-28.444444-28.444445zM332.8 967.111111H56.888889v-330.524444a28.444444 28.444444 0 0 0-56.888889 0v358.968889a28.444444 28.444444 0 0 0 28.444444 28.444444h304.355556a28.444444 28.444444 0 1 0 0-56.888889zM291.84 690.062222V435.768889a28.444444 28.444444 0 0 0-56.888889 0v254.293333a28.444444 28.444444 0 0 0 56.888889 0zM512 254.293333a28.444444 28.444444 0 0 0-28.444444 28.444445V739.555556a28.444444 28.444444 0 1 0 56.888888 0V284.444444a28.444444 28.444444 0 0 0-28.444444-30.151111zM789.048889 791.893333V232.106667a28.444444 28.444444 0 0 0-56.888889 0v559.786666a28.444444 28.444444 0 0 0 56.888889 0z" p-id="2829" fill="#7558f4"></path></svg>