<?xml version="1.0" encoding="UTF-8"?>
<svg class="icon" style="" version="1.1" xmlns="http://www.w3.org/2000/svg" xmlns:xlink="http://www.w3.org/1999/xlink">
    <title>盒子管理-选中</title>
    <defs>
        <linearGradient x1="50%" y1="0%" x2="50%" y2="100%" id="linearGradient-1">
            <stop stop-color="#A388FF" offset="0%"></stop>
            <stop stop-color="#654EF4" offset="100%"></stop>
        </linearGradient>
        <filter x="-107.1%" y="-107.1%" width="314.3%" height="314.3%" filterUnits="objectBoundingBox" id="filter-2">
            <feGaussianBlur stdDeviation="10" in="SourceGraphic"></feGaussianBlur>
        </filter>
    </defs>
    <g id="盒子管理" stroke="none" stroke-width="1" fill="none" fill-rule="evenodd">
        <g id="导航-icon" transform="translate(-18.000000, -62.000000)">
            <g id="盒子管理-选中" transform="translate(48.000000, 92.000000)">
                <g id="编组-16">
                    <rect id="矩形" fill="url(#linearGradient-1)" filter="url(#filter-2)" x="0" y="0" width="28" height="28" rx="4"></rect>
                    <rect id="矩形备份" fill="#A09AFF" opacity="0.217820667" x="0" y="0" width="28" height="28" rx="4"></rect>
                </g>
                <g id="编组-15" transform="translate(6.000000, 6.000000)" fill="#FFFFFF">
                    <path d="M1,0 L6,0 C6.55228475,2.78052031e-16 7,0.44771525 7,1 L7,6 C7,6.55228475 6.55228475,7 6,7 L1,7 C0.44771525,7 4.47140469e-16,6.55228475 0,6 L0,1 C-1.78657678e-16,0.44771525 0.44771525,-9.5692398e-18 1,0 Z M1,9 L6,9 C6.55228475,9 7,9.44771525 7,10 L7,15 C7,15.5522847 6.55228475,16 6,16 L1,16 C0.44771525,16 4.47140469e-16,15.5522847 0,15 L0,10 C-1.78657678e-16,9.44771525 0.44771525,9 1,9 Z M10,0 L15,0 C15.5522847,2.78052031e-16 16,0.44771525 16,1 L16,6 C16,6.55228475 15.5522847,7 15,7 L10,7 C9.44771525,7 9,6.55228475 9,6 L9,1 C9,0.44771525 9.44771525,-9.5692398e-18 10,0 Z M10,9 L15,9 C15.5522847,9 16,9.44771525 16,10 L16,15 C16,15.5522847 15.5522847,16 15,16 L10,16 C9.44771525,16 9,15.5522847 9,15 L9,10 C9,9.44771525 9.44771525,9 10,9 Z" id="形状结合"></path>
                </g>
            </g>
        </g>
    </g>
</svg>