<?xml version="1.0" encoding="UTF-8"?>
<svg width="88px" height="88px" viewBox="0 0 88 88" version="1.1" xmlns="http://www.w3.org/2000/svg" xmlns:xlink="http://www.w3.org/1999/xlink">
    <title>led-选中</title>
    <defs>
        <linearGradient x1="50%" y1="0%" x2="50%" y2="100%" id="linearGradient-1">
            <stop stop-color="#A388FF" offset="0%"></stop>
            <stop stop-color="#654EF4" offset="100%"></stop>
        </linearGradient>
        <filter x="-107.1%" y="-107.1%" width="314.3%" height="314.3%" filterUnits="objectBoundingBox" id="filter-2">
            <feGaussianBlur stdDeviation="10" in="SourceGraphic"></feGaussianBlur>
        </filter>
    </defs>
    <g id="盒子管理" stroke="none" stroke-width="1" fill="none" fill-rule="evenodd">
        <g id="导航-icon" transform="translate(-18.000000, -239.000000)">
            <g id="led-选中" transform="translate(48.000000, 269.000000)">
                <g id="编组-16">
                    <rect id="矩形" fill="url(#linearGradient-1)" filter="url(#filter-2)" x="0" y="0" width="28" height="28" rx="4"></rect>
                    <rect id="矩形备份" fill="#A09AFF" opacity="0.217820667" x="0" y="0" width="28" height="28" rx="4"></rect>
                </g>
                <g id="编组" transform="translate(6.000000, 6.000000)" fill="#FFFFFF" fill-rule="nonzero">
                    <path d="M8,2.7826087 C8.4418278,2.7826087 8.80000001,2.4244365 8.80000001,1.9826087 L8.80000001,0.800000006 C8.80000001,0.358172203 8.4418278,-8.11624507e-17 8,0 C7.5581722,8.11624507e-17 7.19999999,0.358172203 7.19999999,0.800000006 L7.19999999,1.9826087 C7.19999999,2.4244365 7.5581722,2.7826087 8,2.7826087 Z M11.152,4.17391304 C11.4733393,4.45733034 11.9541676,4.46137459 12.2802288,4.18340257 L13.5917712,3.06529307 C13.8639018,2.83329767 13.8964378,2.4246228 13.6644424,2.1524922 C13.6445412,2.12914802 13.6230061,2.10724763 13.6,2.08695652 C13.2786607,1.80353923 12.7978324,1.79949498 12.4717712,2.077467 L11.1602288,3.19557649 C10.8880982,3.42757189 10.8555622,3.83624676 11.0875576,4.10837737 C11.1074588,4.13172155 11.1289939,4.15362193 11.152,4.17391304 Z M2.4,3.0747826 L3.664,4.17391304 C3.98970735,4.45713682 4.47429265,4.45713683 4.80000001,4.17391304 C5.07278065,3.93671249 5.10162401,3.52329105 4.86442345,3.25051041 C4.84447144,3.22756559 4.82294482,3.20603898 4.80000001,3.18608696 L3.53600001,2.08695653 C3.21029266,1.80373274 2.72570736,1.80373274 2.40000001,2.08695652 C2.12721937,2.32415708 2.09837601,2.73757852 2.33557656,3.01035916 C2.35552857,3.03330397 2.37705519,3.05483059 2.4,3.0747826 Z M4.8,6.95652175 L4.8,11.1304348 L3.89565218,11.1304348 C3.51145409,11.1304348 3.2,11.4418889 3.2,11.826087 C3.2,12.210285 3.51145409,12.5217391 3.89565218,12.5217391 L5.6,12.5217391 L5.6,12.5217391 L5.6,15.2 C5.6,15.6418278 5.9581722,16 6.4,16 C6.8418278,16 7.2,15.6418278 7.2,15.2 L7.2,12.5217391 L7.2,12.5217391 L8.80000001,12.5217391 L8.80000001,15.2 C8.80000001,15.6418278 9.1581722,16 9.6,16 C10.0418278,16 10.4,15.6418278 10.4,15.2 L10.4,12.5217391 L10.4,12.5217391 L12.1043478,12.5217391 C12.4885459,12.5217391 12.8,12.210285 12.8,11.826087 C12.8,11.4418889 12.4885459,11.1304348 12.1043478,11.1304348 L11.2,11.1304348 L11.2,11.1304348 L11.2,6.95652175 C11.2,5.41913043 9.76799999,4.17391304 8,4.17391304 C6.23200001,4.17391304 4.8,5.41913043 4.8,6.95652175 Z M0.695652171,7.65217391 L2.50434783,7.65217391 C2.88854592,7.65217391 3.2,7.34071982 3.2,6.95652174 C3.2,6.57232365 2.88854592,6.26086957 2.50434783,6.26086957 L0.695652171,6.26086957 C0.311454086,6.26086957 -4.70506956e-17,6.57232365 0,6.95652174 C4.70506956e-17,7.34071982 0.311454086,7.65217391 0.695652171,7.65217391 Z M12.8,6.95652174 C12.8,7.34071982 13.1114541,7.65217391 13.4956522,7.65217391 L15.3043478,7.65217391 C15.6885459,7.65217391 16,7.34071982 16,6.95652174 C16,6.57232365 15.6885459,6.26086957 15.3043478,6.26086957 L13.4956522,6.26086957 C13.1114541,6.26086957 12.8,6.57232365 12.8,6.95652174 Z" id="形状"></path>
                </g>
            </g>
        </g>
    </g>
</svg>