<?xml version="1.0" encoding="UTF-8"?>
<svg width="88px" height="88px" viewBox="0 0 88 88" version="1.1" xmlns="http://www.w3.org/2000/svg" xmlns:xlink="http://www.w3.org/1999/xlink">
    <title>人员计数-选中</title>
    <defs>
        <linearGradient x1="50%" y1="0%" x2="50%" y2="100%" id="linearGradient-1">
            <stop stop-color="#A388FF" offset="0%"></stop>
            <stop stop-color="#654EF4" offset="100%"></stop>
        </linearGradient>
        <filter x="-107.1%" y="-107.1%" width="314.3%" height="314.3%" filterUnits="objectBoundingBox" id="filter-2">
            <feGaussianBlur stdDeviation="10" in="SourceGraphic"></feGaussianBlur>
        </filter>
    </defs>
    <g id="盒子管理" stroke="none" stroke-width="1" fill="none" fill-rule="evenodd">
        <g id="导航-icon" transform="translate(-18.000000, -296.000000)">
            <g id="编组-16" transform="translate(48.000000, 326.000000)">
                <rect id="矩形" fill="url(#linearGradient-1)" filter="url(#filter-2)" x="0" y="0" width="28" height="28" rx="4"></rect>
                <rect id="矩形备份" fill="#A09AFF" opacity="0.217820667" x="0" y="0" width="28" height="28" rx="4"></rect>
                <path d="M7,11.5 C7,9.56695347 8.56672375,8 10.4995389,8 C12.4332763,8 14,9.56695349 14,11.5 C14,13.4330465 12.4323541,15 10.4995389,15 C8.56672377,15 7,13.4330465 7,11.5 Z M11.8190886,20.2731526 L11.8190886,20.0658277 C11.8190886,18.536302 12.6886368,17.1923201 14,16.4001291 C13.4076036,16.1372072 12.7580323,16.0004225 12.0998435,16 L9.315177,16 C6.93184041,16 5,17.7344305 5,19.874637 L5,20.1247176 C5,21 6.93184041,21 9.315177,21 L11.9775083,21 C11.8691723,20.7707257 11.8151753,20.5229817 11.8190886,20.2731526 Z M18,10 C16.3438095,10 15,11.1192096 15,12.5 C15,13.8807904 16.3438095,15 18,15 C19.6571429,15 21,13.8807904 21,12.5 C21,11.1192096 19.6580952,10 18,10 Z M18,10 C16.3438095,10 15,11.1192096 15,12.5 C15,13.8807904 16.3438095,15 18,15 C19.6571429,15 21,13.8807904 21,12.5 C21,11.1192096 19.6580952,10 18,10 Z M17.40301,17 C15.5234114,17 14,18.3880249 14,20.100311 L14,20.3001555 C14,21 15.5234114,21 17.40301,21 L19.5986622,21 C21.4774247,21 23,20.974339 23,20.3001555 L23,20.100311 C23,18.3880249 21.4774247,17 19.5986622,17 L17.40301,17 Z" id="形状" fill="#FFFFFF" fill-rule="nonzero"></path>
            </g>
        </g>
    </g>
</svg>