<?xml version="1.0" encoding="UTF-8"?>
<svg t="1661748626747" class="icon" viewBox="0 0 1024 1024" version="1.1" xmlns="http://www.w3.org/2000/svg" p-id="1028" width="64" height="64"><path d="M765.3 108.3H258.7c-82.9 0-150 67.2-150 150v507.3c0 82.8 67.1 150 150 150h506.6c82.8 0 150-67.2 150-150V258.3c0-82.8-67.2-150-150-150z m-251 706.1c-164.5 0-297.9-133.4-297.9-297.9 0-164.5 133.4-297.9 297.9-297.9S812.2 352 812.2 516.5c0 164.5-133.4 297.9-297.9 297.9zM512 286.9c-126.8 0-229.6 102.8-229.6 229.7 0 126.8 102.8 229.6 229.6 229.6s229.7-102.8 229.7-229.6c0-126.9-102.9-229.7-229.7-229.7z m2.3 352c-70.1 0-126.9-56.8-126.9-126.9 0-70.1 56.8-126.9 126.9-126.9 70.1 0 126.9 56.8 126.9 126.9 0 70.1-56.8 126.9-126.9 126.9z" fill="#ffffff" p-id="1029"></path></svg>