<?xml version="1.0" encoding="UTF-8"?>
<svg width="88px" height="88px" viewBox="0 0 88 88" version="1.1" xmlns="http://www.w3.org/2000/svg" xmlns:xlink="http://www.w3.org/1999/xlink">
    <title>音响管理-选中</title>
    <defs>
        <linearGradient x1="50%" y1="0%" x2="50%" y2="100%" id="linearGradient-1">
            <stop stop-color="#A388FF" offset="0%"></stop>
            <stop stop-color="#654EF4" offset="100%"></stop>
        </linearGradient>
        <filter x="-107.1%" y="-107.1%" width="314.3%" height="314.3%" filterUnits="objectBoundingBox" id="filter-2">
            <feGaussianBlur stdDeviation="10" in="SourceGraphic"></feGaussianBlur>
        </filter>
        <filter x="-18.8%" y="-18.8%" width="137.5%" height="137.5%" filterUnits="objectBoundingBox" id="filter-3">
            <feGaussianBlur stdDeviation="1" in="SourceGraphic"></feGaussianBlur>
        </filter>
    </defs>
    <g id="盒子管理" stroke="none" stroke-width="1" fill="none" fill-rule="evenodd">
        <g id="导航-icon" transform="translate(-18.000000, -180.000000)">
            <g id="音响管理-选中" transform="translate(48.000000, 210.000000)">
                <g id="编组-16">
                    <rect id="矩形" fill="url(#linearGradient-1)" filter="url(#filter-2)" x="0" y="0" width="28" height="28" rx="4"></rect>
                    <rect id="矩形备份" fill="#A09AFF" opacity="0.217820667" x="0" y="0" width="28" height="28" rx="4"></rect>
                </g>
                <g id="编组-9备份" transform="translate(6.000000, 6.000000)">
                    <path d="M15,0.5 C15.4142136,0.5 15.7892136,0.667893219 16.0606602,0.939339828 C16.298176,1.17685561 16.4564087,1.49365446 16.4922557,1.84663371 L16.5,2 L16.5,14 C16.5,14.4142136 16.3321068,14.7892136 16.0606602,15.0606602 C15.8231444,15.298176 15.5063455,15.4564087 15.1533663,15.4922557 L15,15.5 L3,15.5 C2.58578644,15.5 2.21078644,15.3321068 1.93933983,15.0606602 C1.70182404,14.8231444 1.54359133,14.5063455 1.50774433,14.1533663 L1.5,14 L1.5,2 C1.5,1.58578644 1.66789322,1.21078644 1.93933983,0.939339828 C2.17685561,0.701824045 2.49365446,0.543591326 2.84663371,0.507744331 L3,0.5 L15,0.5 Z M9,2.5 L9,2.5 L8.71697073,2.50715657 C7.31082512,2.57843425 6.04401042,3.17781498 5.1109127,4.1109127 C4.11560847,5.10621694 3.5,6.48121694 3.5,8 C3.5,9.51878306 4.11560847,10.8937831 5.1109127,11.8890873 C6.10621694,12.8843915 7.48121694,13.5 9,13.5 C10.5187831,13.5 11.8937831,12.8843915 12.8890873,11.8890873 C13.8843915,10.8937831 14.5,9.51878306 14.5,8 C14.5,6.48121694 13.8843915,5.10621694 12.8890873,4.1109127 C11.8937831,3.11560847 10.5187831,2.5 9,2.5 L9,2.5 Z M9,6.5 C9.41421356,6.5 9.78921356,6.66789322 10.0606602,6.93933983 C10.3321068,7.21078644 10.5,7.58578644 10.5,8 C10.5,8.41421356 10.3321068,8.78921356 10.0606602,9.06066017 C9.78921356,9.33210678 9.41421356,9.5 9,9.5 C8.58578644,9.5 8.21078644,9.33210678 7.93933983,9.06066017 C7.66789322,8.78921356 7.5,8.41421356 7.5,8 C7.5,7.58578644 7.66789322,7.21078644 7.93933983,6.93933983 C8.21078644,6.66789322 8.58578644,6.5 9,6.5 Z" id="形状结合" stroke="#FFFFFF" opacity="0.333382743" filter="url(#filter-3)"></path>
                    <path d="M14,0 C15.1045695,-2.02906125e-16 16,0.8954305 16,2 L16,14 C16,15.1045695 15.1045695,16 14,16 L2,16 C0.8954305,16 1.3527075e-16,15.1045695 0,14 L0,2 C-1.3527075e-16,0.8954305 0.8954305,2.02906125e-16 2,0 L14,0 Z M8,3 C5.23857625,3 3,5.23857625 3,8 C3,10.7614237 5.23857625,13 8,13 C10.7614237,13 13,10.7614237 13,8 C13,5.23857625 10.7614237,3 8,3 Z M8,6 C9.1045695,6 10,6.8954305 10,8 C10,9.1045695 9.1045695,10 8,10 C6.8954305,10 6,9.1045695 6,8 C6,6.8954305 6.8954305,6 8,6 Z" id="形状结合备份-2" fill="#FFFFFF"></path>
                </g>
            </g>
        </g>
    </g>
</svg>