<?xml version="1.0" standalone="no"?><!DOCTYPE svg PUBLIC "-//W3C//DTD SVG 1.1//EN" "http://www.w3.org/Graphics/SVG/1.1/DTD/svg11.dtd"><svg t="1662716266166" class="icon" viewBox="0 0 1024 1024" version="1.1" xmlns="http://www.w3.org/2000/svg" p-id="1008" xmlns:xlink="http://www.w3.org/1999/xlink" width="64" height="64"><path d="M705.331899 732.884226l-4.777889 4.68038a420.746716 420.746716 0 0 1-150.259719 83.85682 428.839875 428.839875 0 0 1-127.88165 19.745355 422.843137 422.843137 0 0 1-122.567468-18.038967 25.985863 25.985863 0 1 1 15.259991-49.729044 371.505212 371.505212 0 0 0 219.441596-1.462619 367.361125 367.361125 0 0 0 183.509924-129.051745 364.874673 364.874673 0 0 0 71.32705-273.022203 365.362212 365.362212 0 0 0-143.482918-243.282284 369.165022 369.165022 0 0 0-274.241053-70.985773A367.897419 367.897419 0 0 0 127.256138 198.394509 364.094609 364.094609 0 0 0 52.370048 421.83393a369.945085 369.945085 0 0 0 73.423471 219.24658 26.083371 26.083371 0 1 1-41.977164 31.153783A422.063074 422.063074 0 0 1 0.00829 422.126454a415.38378 415.38378 0 0 1 85.563208-255.03199A419.917899 419.917899 0 0 1 364.541685 4.109959a421.721796 421.721796 0 0 1 313.000454 81.175352 417.236431 417.236431 0 0 1 163.715814 277.653829 416.943907 416.943907 0 0 1-81.565383 311.537836 354.831356 354.831356 0 0 1-14.479928 18.087721l270.828275 283.650567a28.2773 28.2773 0 0 1-0.97508 39.978251 28.618577 28.618577 0 0 1-40.173267-0.975079l-269.560671-282.33421zM399.790801 703.778109c-0.780063 0-1.608881 0-2.437698-0.146262a286.234528 286.234528 0 0 1-146.261895-56.262076 283.211782 283.211782 0 0 1-89.219755-112.134119 25.839601 25.839601 0 0 1 13.456094-34.225283 26.034617 26.034617 0 0 1 34.371545 13.40734 233.043952 233.043952 0 0 0 192.383145 137.437427 25.985863 25.985863 0 0 1-2.291436 51.922973z" p-id="1009" fill="#ffffff"></path></svg>