<?xml version="1.0" encoding="UTF-8"?>
<svg width="88px" height="88px" viewBox="0 0 88 88" version="1.1" xmlns="http://www.w3.org/2000/svg" xmlns:xlink="http://www.w3.org/1999/xlink">
    <title>告警记录-选中</title>
    <defs>
        <linearGradient x1="50%" y1="0%" x2="50%" y2="100%" id="linearGradient-1">
            <stop stop-color="#A388FF" offset="0%"></stop>
            <stop stop-color="#654EF4" offset="100%"></stop>
        </linearGradient>
        <filter x="-107.1%" y="-107.1%" width="314.3%" height="314.3%" filterUnits="objectBoundingBox" id="filter-2">
            <feGaussianBlur stdDeviation="10" in="SourceGraphic"></feGaussianBlur>
        </filter>
    </defs>
    <g id="盒子管理" stroke="none" stroke-width="1" fill="none" fill-rule="evenodd">
        <g id="导航-icon" transform="translate(-18.000000, -355.000000)">
            <g id="编组-16" transform="translate(48.000000, 385.000000)">
                <rect id="矩形" fill="url(#linearGradient-1)" filter="url(#filter-2)" x="0" y="0" width="28" height="28" rx="4"></rect>
                <rect id="矩形备份" fill="#A09AFF" opacity="0.217820667" x="0" y="0" width="28" height="28" rx="4"></rect>
                <g id="编组" transform="translate(7.000000, 6.000000)" fill="#FFFFFF" fill-rule="nonzero">
                    <path d="M12.6002489,14.1176471 C13.1156763,14.1176471 13.5335129,14.5390261 13.5335129,15.0588235 C13.5335129,15.5786209 13.1156763,16 12.6002489,16 L1.40108059,16 C0.885653101,16 0.467816566,15.5786209 0.467816566,15.0588235 C0.467816566,14.5390261 0.885653101,14.1176471 1.40108059,14.1176471 L12.6002489,14.1176471 Z M7.00066472,3.76470592 C10.0932296,3.76470592 12.6002489,6.29298027 12.6002489,9.41176473 L12.6002489,13.1764706 L1.40108059,13.1764706 L1.40108059,9.41176473 C1.40108059,6.29298027 3.9080998,3.76470592 7.00066472,3.76470592 L7.00066472,3.76470592 Z M7.93392874,5.64705886 L5.13413668,8.47058826 L6.53403271,8.47058826 L6.0674007,11.2941177 L8.86719276,8.47058826 L7.46729673,8.46964708 L7.93392874,5.64705886 Z M0.652602843,3.33176475 L0.727263964,3.37317651 L2.12716,4.31435298 C2.32848341,4.44931082 2.39426937,4.71698144 2.27874825,4.93113684 C2.16322713,5.14529225 1.90465352,5.23501526 1.68292632,5.13788239 L1.6082652,5.0974118 L0.208369168,4.15623533 C0.00704575957,4.0212775 -0.0587402075,3.75360687 0.056780914,3.53945147 C0.172302036,3.32529607 0.430875644,3.23557305 0.652602843,3.33270592 L0.652602843,3.33176475 Z M13.9217507,3.50400004 C14.046465,3.69286445 14.0197778,3.94458366 13.8582888,4.10258827 L13.7929603,4.15623533 L12.3930642,5.0974118 L12.3184031,5.13788239 C12.1116165,5.22767024 11.8707449,5.15575491 11.7457546,4.96691075 C11.6207643,4.77806659 11.6473001,4.52614843 11.808841,4.36800004 L11.8741694,4.31435298 L13.2740655,3.37317651 L13.3487266,3.33270592 C13.5556903,3.24276839 13.7968182,3.31484877 13.9217507,3.50400004 L13.9217507,3.50400004 Z M3.60358368,1.08517652 L3.65584647,1.15105887 L4.58911049,2.56282357 C4.72207888,2.76528866 4.68044367,3.03654124 4.49299903,3.18898789 C4.30555439,3.34143453 4.03386694,3.32500379 3.86583087,3.15105887 L3.81263482,3.08517651 L2.8793708,1.67341181 C2.74141171,1.47075042 2.78136964,1.19514821 2.97108887,1.04080395 C3.1608081,0.886459678 3.43636105,0.905381019 3.60358368,1.08423534 L3.60358368,1.08517652 Z M10.9922349,1.02023534 C11.179796,1.14622706 11.2512704,1.38939933 11.162089,1.59811769 L11.1219586,1.67341181 L10.1886946,3.08517651 L10.1364318,3.15105887 C9.98018356,3.31684513 9.72835929,3.34532491 9.53957915,3.21855925 C9.35079901,3.09179358 9.27973758,2.84649641 9.37115534,2.63717651 L9.41221895,2.5618824 L10.345483,1.1501177 L10.398679,1.08423534 C10.5553553,0.921377108 10.8049583,0.894463734 10.9922349,1.02023534 L10.9922349,1.02023534 Z M7.00066472,2.64886997e-08 C7.2260408,-7.5719827e-05 7.41926293,0.162307875 7.45983062,0.385882405 L7.46729754,0.470588287 L7.46729754,2.35294122 C7.46774169,2.59669565 7.28354485,2.80044649 7.04282791,2.82247089 C6.80211097,2.84449529 6.58456087,2.67750228 6.54149882,2.4376471 L6.53403271,2.35294122 L6.53403271,0.470588287 C6.53403271,0.210689582 6.74295098,2.64886997e-08 7.00066472,2.64886997e-08 L7.00066472,2.64886997e-08 Z" id="形状"></path>
                </g>
            </g>
        </g>
    </g>
</svg>