<?xml version="1.0" standalone="no"?><!DOCTYPE svg PUBLIC "-//W3C//DTD SVG 1.1//EN" "http://www.w3.org/Graphics/SVG/1.1/DTD/svg11.dtd"><svg t="1655797598547" class="icon" viewBox="0 0 1024 1024" version="1.1" xmlns="http://www.w3.org/2000/svg" p-id="22859" xmlns:xlink="http://www.w3.org/1999/xlink" width="300" height="300"><defs><style type="text/css">@font-face { font-family: feedback-iconfont; src: url("//at.alicdn.com/t/font_1031158_u69w8yhxdu.woff2?t=1630033759944") format("woff2"), url("//at.alicdn.com/t/font_1031158_u69w8yhxdu.woff?t=1630033759944") format("woff"), url("//at.alicdn.com/t/font_1031158_u69w8yhxdu.ttf?t=1630033759944") format("truetype"); }
</style></defs><path d="M201 759h45.2c9.7 0 18.2-7 19.8-16.6 8.6-52.2 53.9-91.9 108.5-91.9s99.9 39.8 108.5 91.9c1.6 9.6 10 16.6 19.8 16.6h154.4c9.7 0 18.2-7 19.8-16.6 8.6-52.2 53.9-91.9 108.5-91.9s99.9 39.8 108.5 91.9c1.6 9.6 10 16.6 19.8 16.6H942c11 0 20-9 20-20V587c0-11-9-20-20-20H545c-11 0-20-9-20-20V371c0-11-9-20-20-20H323.6c-6.7 0-12.9 3.3-16.6 8.8L184.4 541.9c-2.2 3.3-3.4 7.2-3.4 11.2V739c0 11 9 20 20 20z m106.6-259.1l35-56c3.7-5.8 10.1-9.4 17-9.4h72.9c11 0 20 9 20 20v56c0 11-9 20-20 20H324.6c-15.7 0-25.3-17.3-17-30.6z" p-id="22860"></path><path d="M428.9 704.3C347 645.5 256.5 736 315.3 817.9c1.3 1.8 2.9 3.4 4.8 4.8C402 881.5 492.5 791 433.7 709.1c-1.4-1.8-3-3.4-4.8-4.8zM839.9 704.3C758 645.5 667.5 736 726.3 817.9c1.3 1.8 2.9 3.4 4.8 4.8C813 881.5 903.5 791 844.7 709.1c-1.4-1.8-3-3.4-4.8-4.8z" p-id="22861"></path><path d="M943.5 883.5h-783c-11 0-20-9-20-20v-323c0-11-9-20-20-20h-41c-11 0-20 9-20 20v404c0 11 9 20 20 20h864c11 0 20-9 20-20v-41c0-11-9-20-20-20zM600.5 525.5h327c18.8 0 34-15.2 34-34v-260c0-18.8-15.2-34-34-34h-327c-18.8 0-34 15.2-34 34v260c0 18.8 15.2 34 34 34z" p-id="22862"></path></svg>