<?xml version="1.0" standalone="no"?><!DOCTYPE svg PUBLIC "-//W3C//DTD SVG 1.1//EN" "http://www.w3.org/Graphics/SVG/1.1/DTD/svg11.dtd"><svg t="1655798047623" class="icon" viewBox="0 0 1280 1024" version="1.1" xmlns="http://www.w3.org/2000/svg" p-id="35571" xmlns:xlink="http://www.w3.org/1999/xlink" width="375" height="300"><defs><style type="text/css">@font-face { font-family: feedback-iconfont; src: url("//at.alicdn.com/t/font_1031158_u69w8yhxdu.woff2?t=1630033759944") format("woff2"), url("//at.alicdn.com/t/font_1031158_u69w8yhxdu.woff?t=1630033759944") format("woff"), url("//at.alicdn.com/t/font_1031158_u69w8yhxdu.ttf?t=1630033759944") format("truetype"); }
</style></defs><path d="M536.388675 762.805515l-99.197906-121.197441c-13.599713-16.59965-36.399231-22.199531-55.998817-13.799709l-223.995271 95.997973c-21.399548 9.199806-32.999303 32.19932-27.799413 54.998839l47.998987 207.995608c4.999894 21.599544 24.199489 37.199215 46.799012 37.199215 201.395748 0 387.391821-64.798632 539.388611-173.796331l-159.996622-123.59739c-21.79954 12.999726-44.199067 25.399464-67.198581 36.199236z m731.184562 153.396761L950.179939 671.007453C1075.777287 512.810793 1151.975678 313.814994 1151.975678 96.019593c0-22.399527-15.399675-41.799117-37.199215-46.799012l-207.995608-47.998987c-22.599523-5.19989-45.799033 6.599861-54.998839 27.799413l-95.997973 223.995271c-8.399823 19.599586-2.799941 42.599101 13.799709 55.998818l121.197441 99.197905c-24.399485 52.198898-55.798822 100.597876-91.998058 145.596926L90.998079 6.821476C76.998374-3.978296 56.998797-1.578347 45.999029 12.421358L6.799856 62.820294c-10.799772 13.999704-8.399823 33.999282 5.599882 44.799054l1176.775155 909.3808c13.999704 10.799772 33.999282 8.399823 44.99905-5.599882l39.199172-50.598932c10.799772-13.599713 8.199827-33.799286-5.799878-44.599058z" p-id="35572" fill="#2c2c2c"></path></svg>