<?xml version="1.0" standalone="no"?><!DOCTYPE svg PUBLIC "-//W3C//DTD SVG 1.1//EN" "http://www.w3.org/Graphics/SVG/1.1/DTD/svg11.dtd"><svg t="1663123704637" class="icon" viewBox="0 0 1024 1024" version="1.1" xmlns="http://www.w3.org/2000/svg" p-id="6381" xmlns:xlink="http://www.w3.org/1999/xlink" width="64" height="64"><path d="M936.881338 383.597585c12.100596 40.825824 18.235316 83.314521 18.235316 126.288265 0 59.892065-11.733229 118.001531-34.874275 172.71362-22.347984 52.837392-54.338582 100.287077-95.082542 141.030014-40.74396 40.74396-88.193645 72.734558-141.031037 95.082542-54.711066 23.141046-112.821555 34.874275-172.71362 34.874275-59.893088 0-118.002554-11.733229-172.71362-34.874275-52.837392-22.347984-100.287077-54.338582-141.031037-95.082542-40.74396-40.742936-72.734558-88.193645-95.082542-141.030014-23.141046-54.712089-34.874275-112.821555-34.874275-172.71362 0-59.893088 11.733229-118.002554 34.874275-172.71362 22.347984-52.837392 54.338582-100.288101 95.082542-141.03206 40.74396-40.74396 88.193645-72.734558 141.031037-95.082542 54.711066-23.141046 112.820532-34.874275 172.71362-34.874275 113.524566 0 221.539652 42.844807 304.146045 120.641661l-20.275789 21.529339C718.187501 135.744637 617.372398 95.756901 511.415181 95.756901c-228.350778 0-414.127925 185.777147-414.127925 414.128949 0 228.349755 185.777147 414.126902 414.127925 414.126902S925.543106 738.235604 925.543106 509.885849c0-40.125883-5.725398-79.788208-17.016559-117.883851L936.881338 383.597585zM237.626537 469.870484l-20.555152 20.813025 247.734244 245.99974 492.320798-527.912411-22.439058-20.952194L463.514217 693.085288 237.626537 469.870484z" p-id="6382" fill="#7558f4"></path></svg>