<?xml version="1.0" standalone="no"?><!DOCTYPE svg PUBLIC "-//W3C//DTD SVG 1.1//EN" "http://www.w3.org/Graphics/SVG/1.1/DTD/svg11.dtd"><svg t="1655796652917" class="icon" viewBox="0 0 1024 1024" version="1.1" xmlns="http://www.w3.org/2000/svg" p-id="9174" xmlns:xlink="http://www.w3.org/1999/xlink" width="300" height="300"><defs><style type="text/css">@font-face { font-family: feedback-iconfont; src: url("//at.alicdn.com/t/font_1031158_u69w8yhxdu.woff2?t=1630033759944") format("woff2"), url("//at.alicdn.com/t/font_1031158_u69w8yhxdu.woff?t=1630033759944") format("woff"), url("//at.alicdn.com/t/font_1031158_u69w8yhxdu.ttf?t=1630033759944") format("truetype"); }
</style></defs><path d="M798.9 758.6H673c-13 0-23.6-10.6-23.6-23.6s10.6-23.6 23.6-23.6h125.9c13 0 23.6 10.6 23.6 23.6s-10.5 23.6-23.6 23.6zM451.5 504.5C339.3 504.5 248 413.2 248 301S339.3 97.5 451.5 97.5 655 188.8 655 301s-91.2 203.5-203.5 203.5z m0-359.8c-86.2 0-156.3 70.1-156.3 156.3s70.1 156.3 156.3 156.3S607.8 387.2 607.8 301s-70.1-156.3-156.3-156.3z" fill="#353637" p-id="9175"></path><path d="M665.6 877.8h-571l-2.1-21.3c-1.2-12.1-1.8-24.3-1.8-36.1 0-199 161.9-360.9 360.9-360.9 90 0 176.3 33.6 243.2 94.7l29.2 26.6-37.4 13.2c-59.9 21-100.2 77.7-100.2 141 0 38.4 14.6 74.9 41.3 102.9l37.9 39.9zM138 830.6h426c-16.2-29-24.8-61.7-24.8-95.6 0-69.9 37.2-133.6 95.7-168.6-53.3-38.6-117.3-59.6-183.4-59.6-173 0-313.7 140.7-313.7 313.7 0.1 3.3 0.1 6.7 0.2 10.1z" fill="#353637" p-id="9176"></path><path d="M736 931.8c-108.5 0-196.8-88.3-196.8-196.8S627.5 538.2 736 538.2 932.7 626.5 932.7 735 844.5 931.8 736 931.8z m0-346.3c-82.5 0-149.5 67.1-149.5 149.5s67 149.5 149.5 149.5 149.5-67 149.5-149.5S818.4 585.5 736 585.5zM435.8 369.9c-6 0-12.1-2.3-16.7-6.9l-47.2-47.2c-9.2-9.2-9.2-24.2 0-33.4s24.2-9.2 33.4 0l30.5 30.5 62-62c9.2-9.2 24.2-9.2 33.4 0s9.2 24.2 0 33.4L452.5 363c-4.6 4.6-10.7 6.9-16.7 6.9z" fill="#353637" p-id="9177"></path></svg>