<?xml version="1.0" standalone="no"?><!DOCTYPE svg PUBLIC "-//W3C//DTD SVG 1.1//EN" "http://www.w3.org/Graphics/SVG/1.1/DTD/svg11.dtd"><svg t="1655697233568" class="icon" viewBox="0 0 1024 1024" version="1.1" xmlns="http://www.w3.org/2000/svg" p-id="9650" xmlns:xlink="http://www.w3.org/1999/xlink" width="300" height="300"><defs><style type="text/css">@font-face { font-family: feedback-iconfont; src: url("//at.alicdn.com/t/font_1031158_u69w8yhxdu.woff2?t=1630033759944") format("woff2"), url("//at.alicdn.com/t/font_1031158_u69w8yhxdu.woff?t=1630033759944") format("woff"), url("//at.alicdn.com/t/font_1031158_u69w8yhxdu.ttf?t=1630033759944") format("truetype"); }
</style></defs><path d="M976.8 247.2l-218 118.8v-140c0-35.6-28.4-63.6-63.6-63.6H77.6c-35.6 0-64 28.4-64 63.6V804c0 35.6 28.4 63.6 64 63.6H696c35.6 0 63.6-28.4 63.6-63.6v-140.4l216 118.4s12.8 5.2 24-1.2c13.6-8.4 13.6-20.4 13.6-20.4V264s-3.6-12.4-15.2-16c-12-4-21.2-0.8-21.2-0.8zM513.6 524c-1.2 1.6-3.2 3.6-4.8 4.8l-180.4 115.6c-3.2 1.2-5.2 3.2-8.4 3.2-8.4 0-15.2-6.8-15.2-15.6v-231.6c0-8.4 6.4-15.6 15.2-15.6 3.2 0 6 0.4 8.4 3.2l180.4 115.6c7.6 2.4 9.6 12.4 4.8 20.4z" p-id="9651"></path></svg>