<svg t="1655189415156" class="icon" viewBox="0 0 1024 1024" version="1.1" xmlns="http://www.w3.org/2000/svg" p-id="47951" width="300" height="300"><path d="M284.40576 102.0928c99.4304 0 179.93728 79.70816 179.93728 179.15904l0 179.93728-179.93728 0c-99.4304 0-179.15904-80.4864-179.15904-179.93728S184.95488 102.0928 284.40576 102.0928L284.40576 102.0928z" p-id="47952" fill="#e6e6e6"></path><path d="M109.9776 738.22208c0-99.4304 80.50688-179.97824 179.95776-179.97824l179.15904 0 0 179.97824c0 98.63168-80.50688 179.13856-179.15904 179.13856C190.48448 917.36064 109.9776 836.85376 109.9776 738.22208L109.9776 738.22208z" p-id="47953" fill="#e6e6e6"></path><path d="M744.50944 102.0928c-99.4304 0-179.13856 79.70816-179.13856 179.15904l0 179.93728 179.13856 0c99.4304 0 179.93728-80.4864 179.93728-179.93728S843.93984 102.0928 744.50944 102.0928L744.50944 102.0928z" p-id="47954" fill="#e6e6e6"></path><path d="M918.9376 738.22208c0-99.4304-79.72864-179.97824-179.15904-179.97824l-179.95776 0 0 179.97824c0 98.63168 80.52736 179.13856 179.95776 179.13856S918.9376 836.85376 918.9376 738.22208L918.9376 738.22208z" p-id="47955" fill="#e6e6e6"></path></svg>
