<?xml version="1.0" standalone="no"?><!DOCTYPE svg PUBLIC "-//W3C//DTD SVG 1.1//EN" "http://www.w3.org/Graphics/SVG/1.1/DTD/svg11.dtd"><svg t="1662717056896" class="icon" viewBox="0 0 1024 1024" version="1.1" xmlns="http://www.w3.org/2000/svg" p-id="2304" xmlns:xlink="http://www.w3.org/1999/xlink" width="64" height="64"><path d="M485.49 591.35l102-102a36 36 0 0 0-50.9-50.9l-102 102a36 36 0 0 0 50.9 50.9z m412.9-465.7c-79.2-79.2-207.9-79.2-287.1 0l-178.9 178.9a36 36 0 0 0 50.9 50.9l178.9-178.9a131.05 131.05 0 0 1 223.7 92.6 129.78 129.78 0 0 1-38.4 92.6l-178.9 178.9a36 36 0 0 0 51 50.9l178.9-178.9c79.1-79.1 79.1-207.9-0.1-287z m-357.7 542.9l-178.8 178.9a131 131 0 1 1-185.3-185.2l178.9-178.9a36 36 0 0 0-50.9-50.9l-178.9 178.8a203 203 0 0 0 287 287.1l178.9-178.9a36 36 0 1 0-50.9-50.9z" p-id="2305" fill="#ffffff"></path></svg>