<?xml version="1.0" standalone="no"?><!DOCTYPE svg PUBLIC "-//W3C//DTD SVG 1.1//EN" "http://www.w3.org/Graphics/SVG/1.1/DTD/svg11.dtd"><svg t="1662715965279" class="icon" viewBox="0 0 1024 1024" version="1.1" xmlns="http://www.w3.org/2000/svg" p-id="818" xmlns:xlink="http://www.w3.org/1999/xlink" width="64" height="64"><path d="M788.48 534.528H235.52a41.057524 41.057524 0 0 1-40.96-40.96c0-22.528 18.432-40.96 40.96-40.96h552.96c22.528 0 40.96 18.432 40.96 40.96 0 22.528-17.944381 40.96-40.96 40.96zM81.92 942.08v-245.76a41.057524 41.057524 0 0 0-40.96-40.96 41.057524 41.057524 0 0 0-40.96 40.96v266.24C0 996.352 27.648 1024 61.44 1024h266.24c22.528 0 40.96-18.432 40.96-40.96a41.057524 41.057524 0 0 0-40.96-40.96H81.92z m0-860.16h245.76c22.528 0 40.96-18.432 40.96-40.96A41.057524 41.057524 0 0 0 327.68 0H61.44C27.648 0 0 27.648 0 61.44v266.24c0 22.528 18.432 40.96 40.96 40.96 22.528 0 40.96-18.432 40.96-40.96V81.92z m860.16 860.16h-245.76a41.057524 41.057524 0 0 0-40.96 40.96c0 22.528 18.432 40.96 40.96 40.96h266.24c33.792 0 61.44-27.648 61.44-61.44v-266.24a41.057524 41.057524 0 0 0-40.96-40.96 41.057524 41.057524 0 0 0-40.96 40.96v245.76zM962.56 0h-266.24a41.057524 41.057524 0 0 0-40.96 40.96c0 22.528 18.432 40.96 40.96 40.96h245.76v245.76c0 22.528 18.432 40.96 40.96 40.96 22.528 0 40.96-18.432 40.96-40.96V61.44C1024 27.648 996.888381 0 962.56 0z" p-id="819" fill="#ffffff"></path></svg>