<svg t="1655189554848" class="icon" viewBox="0 0 1024 1024" version="1.1" xmlns="http://www.w3.org/2000/svg" p-id="48992" width="300" height="300"><path d="M584.747281 804.042561v73.078361h109.677738c20.165775 0 36.539181 16.373405 36.539181 36.599377v73.078361a36.539181 36.539181 0 0 1-36.539181 36.53918H328.912821a36.539181 36.539181 0 0 1-36.53918-36.53918v-73.078361c0-20.225971 16.373405-36.599377 36.53918-36.599377h109.677738v-73.078361H73.078361c-40.33155 0-73.078361-32.746811-73.078361-73.078361V73.078361C0 32.746811 32.746811 0 73.078361 0h877.181118C990.591029 0 1023.33784 32.746811 1023.33784 73.078361v657.885839c0 40.33155-32.746811 73.078361-73.078361 73.078361H584.747281zM402.111575 365.452002a36.539181 36.539181 0 0 0-36.599377 36.599377v182.695902h73.138557V402.111575a36.539181 36.539181 0 0 0-36.53918-36.599377zM182.756099 438.590559a36.539181 36.539181 0 0 0-36.539181 36.539181v109.617541h73.078362V475.12974a36.539181 36.539181 0 0 0-36.539181-36.539181z m438.530363-146.216918a36.539181 36.539181 0 0 0-36.539181 36.53918v255.83446h73.138558v-255.83446a36.539181 36.539181 0 0 0-36.599377-36.53918z m219.295279-146.156723a36.539181 36.539181 0 0 0-36.53918 36.539181v401.991182h73.078361V182.756099a36.539181 36.539181 0 0 0-36.539181-36.539181z m-730.964199 511.668921a36.539181 36.539181 0 1 0 0 73.078361H913.780495a36.539181 36.539181 0 1 0 0-73.078361H109.557345z" p-id="48993" fill="#e6e6e6"></path></svg>
