<?xml version="1.0" standalone="no"?><!DOCTYPE svg PUBLIC "-//W3C//DTD SVG 1.1//EN" "http://www.w3.org/Graphics/SVG/1.1/DTD/svg11.dtd"><svg t="1655800374688" class="icon" viewBox="0 0 1280 1024" version="1.1" xmlns="http://www.w3.org/2000/svg" p-id="85787" xmlns:xlink="http://www.w3.org/1999/xlink" width="375" height="300"><defs><style type="text/css">@font-face { font-family: feedback-iconfont; src: url("//at.alicdn.com/t/font_1031158_u69w8yhxdu.woff2?t=1630033759944") format("woff2"), url("//at.alicdn.com/t/font_1031158_u69w8yhxdu.woff?t=1630033759944") format("woff"), url("//at.alicdn.com/t/font_1031158_u69w8yhxdu.ttf?t=1630033759944") format("truetype"); }
</style></defs><path d="M1248 736H160c-17.6 0-32 14.4-32 32v32c0 17.6 14.4 32 32 32h1088c17.6 0 32-14.4 32-32v-32c0-17.6-14.4-32-32-32z m-960 192H32c-17.6 0-32 14.4-32 32v32c0 17.6 14.4 32 32 32h256c17.6 0 32-14.4 32-32v-32c0-17.6-14.4-32-32-32z m832 0H448c-17.6 0-32 14.4-32 32v32c0 17.6 14.4 32 32 32h672c17.6 0 32-14.4 32-32v-32c0-17.6-14.4-32-32-32zM288 576h312.2c45 39.4 103.2 64 167.8 64s122.6-24.6 167.8-64H1056c123.8 0 224-100.2 224-224S1179.8 128 1056 128c-36 0-69.4 9.2-99.4 24.2C908 62 813.6 0 704 0c-82 0-155.6 34.6-208 89.6C443.6 34.6 370 0 288 0 129 0 0 129 0 288s129 288 288 288z" p-id="85788"></path></svg>