<?xml version="1.0" standalone="no"?><!DOCTYPE svg PUBLIC "-//W3C//DTD SVG 1.1//EN" "http://www.w3.org/Graphics/SVG/1.1/DTD/svg11.dtd"><svg t="1655796234188" class="icon" viewBox="0 0 1024 1024" version="1.1" xmlns="http://www.w3.org/2000/svg" p-id="2067" xmlns:xlink="http://www.w3.org/1999/xlink" width="300" height="300"><defs><style type="text/css">@font-face { font-family: feedback-iconfont; src: url("//at.alicdn.com/t/font_1031158_u69w8yhxdu.woff2?t=1630033759944") format("woff2"), url("//at.alicdn.com/t/font_1031158_u69w8yhxdu.woff?t=1630033759944") format("woff"), url("//at.alicdn.com/t/font_1031158_u69w8yhxdu.ttf?t=1630033759944") format("truetype"); }
</style></defs><path d="M417.728 852.32a176.16 176.16 0 0 1-128.16-32.64l-0.64 1.344c-98.72-5.568-176.928-89.344-176.928-191.68 0-22.304 3.744-44.032 10.816-64.416l39.04-10.08a163.136 163.136 0 0 0-17.856 74.496c0 71.264 45.216 131.52 107.648 152.288a174.816 174.816 0 0 1-8.64-13.088l22.336-25.696c9.248 18.336 22.08 34.016 37.248 46.464a153.6 153.6 0 0 0 2.464-0.096l-0.736 1.472a143.904 143.904 0 0 0 170.496 6.368l23.264 22.72c-12.576 9.248-26.56 16.96-41.856 22.72a194.112 194.112 0 0 0 114.624 37.504c52.192 0 99.776-20.8 135.264-54.848a178.56 178.56 0 0 1-35.584-1.024 177.28 177.28 0 0 1-3.392 4.096l-2.56-37.504 2.016 0.384a144 144 0 0 0 149.76-216.704l25.344-19.84c11.936 18.528 20.48 39.456 24.736 61.888a177.28 177.28 0 0 0 45.568-119.104c0-77.632-49.6-145.216-120.608-167.264l-9.216-2.88-1.76-9.472c-15.168-81.792-84.96-141.728-166.72-141.728-16.448 0-32.48 2.432-47.744 7.04 15.68 8.448 30.112 19.072 42.88 31.552l-23.616 21.632a160.064 160.064 0 0 0-267.936 87.136H284.8a191.36 191.36 0 0 1 49.28-102.08 166.496 166.496 0 0 0-20.384-1.28c-93.664 0-169.728 78.08-169.728 174.656 0 13.984 1.6 27.68 4.672 40.896l-33.888-6.496a212.992 212.992 0 0 1-2.784-34.4c0-114.048 90.24-206.656 201.728-206.656 15.104 0 29.952 1.728 44.32 5.024l-2.176 8.16A191.168 191.168 0 0 1 474.72 160c22.144 0 43.616 3.776 63.68 10.848l-3.328-10.528a197.312 197.312 0 0 1 78.656-16.32c94.208 0 174.848 66.624 196.224 158.592 79.488 28.96 134.048 106.432 134.048 194.752 0 54.592-20.832 104.928-55.36 142.24l-19.584-3.232a176.064 176.064 0 0 1-125.536 182.08l6.912 5.312c-42.24 53.856-107.04 88.256-179.584 88.256a226.752 226.752 0 0 1-153.12-59.68z m14.592-324.512a274.24 274.24 0 0 0-3.104-13.504 136.224 136.224 0 0 1-2.688 14.208c-2.72 10.88-5.888 19.904-12.064 35.52-2.4 6.016-3.488 8.768-4.64 11.808-9.6 25.12-12.16 40.96-7.872 60.608 9.76 44.864 44.704 74.08 107.84 88.16a16 16 0 0 1-6.944 31.232c-74.4-16.608-119.456-54.272-132.16-112.544-5.888-26.912-2.368-48.48 9.248-78.88 1.216-3.2 2.368-6.144 4.768-12.16 5.696-14.4 8.48-22.368 10.784-31.552 3.904-15.488 5.504-45.888 4.512-90.24l-1.824-81.28 32.48 74.56c12.32 28.224 21.568 53.568 27.808 76.032 1.952-20.48 4.544-40.864 7.744-61.248 6.72-43.008 6.72-81.472 0.096-115.456l-10.112-51.68 37.152 37.312c40.32 40.48 69.632 78.432 88 114.08 5.536 10.784 10.24 21.632 14.112 32.64 1.024-14.4 0.48-26.944-1.568-37.664l-12.32-64.128 40.576 51.2c55.264 69.664 79.104 136.96 70.4 201.472-8.832 65.984-54.176 115.744-133.664 148.704a16 16 0 1 1-12.256-29.568c69.76-28.896 107.04-69.856 114.24-123.392 5.696-42.592-5.568-87.616-34.304-135.232-0.32 2.944-0.704 5.952-1.12 8.96a252.864 252.864 0 0 1-17.824 66.048l-31.328 72.48 0.64-78.944c0.288-33.6-7.68-66.176-24.032-97.92-11.52-22.336-28.096-46.112-49.792-71.296 0.768 24.32-0.992 50.08-5.28 77.344a999.808 999.808 0 0 0-11.84 132.864l-0.768 33.824-25.664-22.048c-12.704-10.88-21.248-30.88-27.232-60.32z" p-id="2068"></path></svg>