<?xml version="1.0" standalone="no"?><!DOCTYPE svg PUBLIC "-//W3C//DTD SVG 1.1//EN" "http://www.w3.org/Graphics/SVG/1.1/DTD/svg11.dtd"><svg t="1655796985712" class="icon" viewBox="0 0 1024 1024" version="1.1" xmlns="http://www.w3.org/2000/svg" p-id="9323" xmlns:xlink="http://www.w3.org/1999/xlink" width="300" height="300"><defs><style type="text/css">@font-face { font-family: feedback-iconfont; src: url("//at.alicdn.com/t/font_1031158_u69w8yhxdu.woff2?t=1630033759944") format("woff2"), url("//at.alicdn.com/t/font_1031158_u69w8yhxdu.woff?t=1630033759944") format("woff"), url("//at.alicdn.com/t/font_1031158_u69w8yhxdu.ttf?t=1630033759944") format("truetype"); }
</style></defs><path d="M398.496 776.96c35.072 63.2 100.32 103.04 172.352 103.04 107.104 0 194.88-87.552 198.208-197.568l0.352-12.192 11.84-2.88c76-18.368 130.752-88.448 130.752-170.016 0-77.632-49.6-145.216-120.608-167.264l-9.216-2.88-1.76-9.472c-15.168-81.792-84.96-141.728-166.72-141.728-64.128 0-121.92 36.96-150.88 94.688l-1.792 3.52a191.68 191.68 0 0 1 89.536 38.72l-24 21.984a160.064 160.064 0 0 0-242.688 68.48H249.76A192.096 192.096 0 0 1 434.56 272a166.784 166.784 0 0 0-120.832-52.032c-93.664 0-169.728 78.08-169.728 174.656 0 40.704 13.536 79.2 37.952 110.08l8.064 10.24-8.384 9.952A162.048 162.048 0 0 0 144 629.344c0 88.448 69.696 160 155.424 160 27.008 0 52.992-7.104 76.032-20.416l0.512-0.32a176.64 176.64 0 0 1-90.24-92.32l30.496-10.144a144.032 144.032 0 0 0 237.312 39.84l27.968 16.704A175.68 175.68 0 0 1 448 784a176.064 176.064 0 0 1-49.504-7.04z m172.352 135.04c-79.36 0-151.584-41.504-193.504-108a183.072 183.072 0 0 1-77.92 17.344c-103.616 0-187.424-86.08-187.424-192 0-42.08 13.28-82.112 37.28-114.944A209.28 209.28 0 0 1 112 394.656c0-114.048 90.24-206.656 201.728-206.656 48.896 0 95.04 17.92 131.104 49.6C481.568 180.032 544.48 144 613.728 144c94.208 0 174.848 66.624 196.224 158.592 79.488 28.96 134.048 106.432 134.048 194.752 0 92.128-59.328 172.064-143.616 197.952-9.6 121.504-108.864 216.704-229.536 216.704z m84.48-231.936a144.064 144.064 0 0 0 80.96-201.504l28.48-14.688a176.064 176.064 0 0 1-91.52 243.616l-17.92-27.424z" p-id="9324" fill="#2c2c2c"></path></svg>