<?xml version="1.0" standalone="no"?><!DOCTYPE svg PUBLIC "-//W3C//DTD SVG 1.1//EN" "http://www.w3.org/Graphics/SVG/1.1/DTD/svg11.dtd"><svg t="1655796739179" class="icon" viewBox="0 0 1024 1024" version="1.1" xmlns="http://www.w3.org/2000/svg" p-id="1329" xmlns:xlink="http://www.w3.org/1999/xlink" width="300" height="300"><defs><style type="text/css">@font-face { font-family: feedback-iconfont; src: url("//at.alicdn.com/t/font_1031158_u69w8yhxdu.woff2?t=1630033759944") format("woff2"), url("//at.alicdn.com/t/font_1031158_u69w8yhxdu.woff?t=1630033759944") format("woff"), url("//at.alicdn.com/t/font_1031158_u69w8yhxdu.ttf?t=1630033759944") format("truetype"); }
</style></defs><path d="M938.666667 533.333333v85.333334a21.333333 21.333333 0 0 1-21.333334 21.333333h-42.666666a21.333333 21.333333 0 0 1-21.333334-21.333333v-85.333334a21.333333 21.333333 0 0 1 21.333334-21.333333h42.666666a21.333333 21.333333 0 0 1 21.333334 21.333333z m-268.373334-21.333333l128 128a20.906667 20.906667 0 0 0 12.373334-21.333333v-85.333334a21.333333 21.333333 0 0 0-21.333334-21.333333z m31.146667-213.333333A170.666667 170.666667 0 0 1 853.333333 450.56a20.906667 20.906667 0 0 0 20.906667 18.773333h42.666667a22.186667 22.186667 0 0 0 15.786666-6.826666 23.893333 23.893333 0 0 0 5.546667-16.64 256 256 0 0 0-131.413333-200.533334A170.666667 170.666667 0 0 0 853.333333 152.32a20.906667 20.906667 0 0 0-5.12-17.066667 20.906667 20.906667 0 0 0-17.92-7.253333h-42.666666a21.333333 21.333333 0 0 0-20.906667 17.066667A85.333333 85.333333 0 0 1 699.733333 213.333333a21.333333 21.333333 0 0 0-17.066666 20.906667v44.373333a20.906667 20.906667 0 0 0 18.773333 20.053334z m42.666667 170.666666a21.76 21.76 0 0 0 15.786666-5.546666 22.186667 22.186667 0 0 0 6.826667-15.786667v-42.666667a21.333333 21.333333 0 0 0-19.626667-21.333333A256 256 0 0 1 512 147.626667a21.333333 21.333333 0 0 0-21.333333-19.626667h-42.666667a22.186667 22.186667 0 0 0-15.786667 6.826667 21.76 21.76 0 0 0-5.546666 15.786666A341.333333 341.333333 0 0 0 745.386667 469.333333zM186.88 134.4a20.48 20.48 0 0 0-29.866667 0l-22.613333 22.613333a20.48 20.48 0 0 0 0 29.866667L459.093333 512H106.666667a21.333333 21.333333 0 0 0-21.333334 21.333333v85.333334a21.333333 21.333333 0 0 0 21.333334 21.333333h480.426666l250.026667 249.6a20.48 20.48 0 0 0 29.866667 0l22.613333-22.613333a20.48 20.48 0 0 0 0-29.866667z" p-id="1330"></path></svg>