<svg t="1655188469316" class="icon" viewBox="0 0 1025 1024" version="1.1" xmlns="http://www.w3.org/2000/svg" p-id="39819" width="300" height="300"><path d="M512.21909 161.410267c-60.241678 0-109.077344 48.835666-109.077344 109.077344 0 60.241678 48.835666 109.077344 109.077344 109.077344 60.241678 0 109.077344-48.835666 109.077344-109.077344C621.296434 210.245933 572.460768 161.410267 512.21909 161.410267zM511.45944 298.43495c-16.103147 0-29.157455-13.054309-29.157455-29.157455 0-16.103147 13.054309-29.157455 29.157455-29.157455 16.103147 0 29.157455 13.054309 29.157455 29.157455C540.617919 285.380641 527.563611 298.43495 511.45944 298.43495zM594.596068 228.936189l-46.205557 20.256651c-6.002463 2.631133-11.358917-4.771871-6.982228-9.650217l33.683618-37.546366c2.593253-2.890151 7.193128-2.650585 9.471054 0.494489l12.521939 17.289716C599.363844 222.928607 598.154752 227.375938 594.596068 228.936189z" p-id="39820"></path><path d="M512.21909 462.182522c-104.542991 0-189.292083 84.749092-189.292083 189.292083 0 104.542991 84.749092 189.291059 189.292083 189.291059 104.542991 0 189.292083-84.749092 189.292083-189.291059C701.51015 546.931614 616.762081 462.182522 512.21909 462.182522zM513.468111 703.436917c-27.159023 0-49.175563-22.017564-49.175563-49.176587 0-27.159023 22.016541-49.175563 49.175563-49.175563s49.175563 22.016541 49.175563 49.175563C562.643674 681.419353 540.627134 703.436917 513.468111 703.436917zM668.919937 596.688689l-87.268632 32.746853c-11.337418 4.253835-20.478812-9.938925-11.915858-18.50188l65.897077-65.897077c5.073889-5.073889 13.535489-4.169885 17.422808 1.860221l21.371555 33.149201C678.317278 586.081231 675.642122 594.166077 668.919937 596.688689z" p-id="39821"></path><path d="M788.344696 69.210052 236.092461 69.210052c-12.525011 0-22.677907 10.15392-22.677907 22.678931l0 794.865196c0 12.525011 10.15392 22.677907 22.677907 22.677907l24.492058 0c12.525011 0 22.678931 10.15392 22.678931 22.678931l0 0c0 12.525011 10.15392 22.677907 22.677907 22.677907l412.553421 0c12.525011 0 22.677907-10.152896 22.677907-22.677907l0 0c0-12.525011 10.15392-22.678931 22.677907-22.678931l24.492058 0c12.525011 0 22.678931-10.152896 22.678931-22.677907l0-794.865196C811.022603 79.363972 800.869707 69.210052 788.344696 69.210052zM512.21909 143.006671c71.684546 0 129.796746 58.112201 129.796746 129.796746 0 71.684546-58.112201 129.796746-129.796746 129.796746-71.684546 0-129.796746-58.112201-129.796746-129.796746C382.422344 201.118871 440.533521 143.006671 512.21909 143.006671zM264.428839 156.426471c-15.655752 0-28.34764-12.691888-28.34764-28.34764 0-15.655752 12.691888-28.34764 28.34764-28.34764s28.34764 12.691888 28.34764 28.34764C292.776478 143.734583 280.08459 156.426471 264.428839 156.426471zM512.21909 866.342937c-118.626206 0-214.791547-96.165342-214.791547-214.791547s96.165342-214.791547 214.791547-214.791547 214.791547 96.165342 214.791547 214.791547S630.845296 866.342937 512.21909 866.342937zM758.206453 156.426471c-15.655752 0-28.34764-12.691888-28.34764-28.34764 0-15.655752 12.691888-28.34764 28.34764-28.34764 15.655752 0 28.34764 12.691888 28.34764 28.34764C786.554093 143.734583 773.862205 156.426471 758.206453 156.426471z" p-id="39822"></path></svg>
